<svg width="45" height="45" viewBox="0 0 45 45" fill="none" xmlns="http://www.w3.org/2000/svg">
<path d="M22.5 0C28.4674 0 34.1903 2.37053 38.4099 6.5901C42.6295 10.8097 45 16.5326 45 22.5C45 28.4674 42.6295 34.1903 38.4099 38.4099C34.1903 42.6295 28.4674 45 22.5 45C16.5326 45 10.8097 42.6295 6.5901 38.4099C2.37053 34.1903 0 28.4674 0 22.5C0 16.5326 2.37053 10.8097 6.5901 6.5901C10.8097 2.37053 16.5326 0 22.5 0ZM22.5 9.64285C22.0919 9.64249 21.6882 9.72725 21.3147 9.89171C20.9413 10.0562 20.6062 10.2967 20.3309 10.598C20.0557 10.8993 19.8463 11.2547 19.7161 11.6414C19.5859 12.0282 19.5379 12.4379 19.575 12.8443L20.7482 25.7207C20.7937 26.1536 20.9979 26.5544 21.3213 26.8456C21.6448 27.1369 22.0647 27.2981 22.5 27.2981C22.9353 27.2981 23.3552 27.1369 23.6786 26.8456C24.0021 26.5544 24.2063 26.1536 24.2518 25.7207L25.4218 12.8443C25.4589 12.4382 25.4109 12.0288 25.2809 11.6422C25.151 11.2556 24.9419 10.9004 24.6669 10.5992C24.392 10.298 24.0573 10.0573 23.6842 9.89268C23.3111 9.72802 22.9078 9.64294 22.5 9.64285ZM22.5 35.3571C23.182 35.3571 23.836 35.0862 24.3183 34.604C24.8005 34.1217 25.0714 33.4677 25.0714 32.7857C25.0714 32.1037 24.8005 31.4497 24.3183 30.9674C23.836 30.4852 23.182 30.2143 22.5 30.2143C21.818 30.2143 21.164 30.4852 20.6817 30.9674C20.1995 31.4497 19.9286 32.1037 19.9286 32.7857C19.9286 33.4677 20.1995 34.1217 20.6817 34.604C21.164 35.0862 21.818 35.3571 22.5 35.3571Z" fill="#FFF07C"/>
</svg>
