<svg width="44" height="44" viewBox="0 0 44 44" fill="none" xmlns="http://www.w3.org/2000/svg">
<path fill-rule="evenodd" clip-rule="evenodd" d="M18.3085 14.8511C10.58 16.1873 9.90423 7.89936 5.39616 6.09328C5.24462 6.03494 5.25916 5.8134 5.41657 5.77557C8.65464 4.97872 18.5128 3.23807 19.1803 13.5244C19.5145 13.9181 19.8222 14.3255 20.104 14.7497C19.2288 5.94127 28.4265 5.14881 31.6016 5.0818C31.7648 5.07891 31.8348 5.28879 31.7066 5.38497C27.8141 8.29936 29.3085 16.4869 21.4837 17.1877C21.4738 17.2109 21.4641 17.2339 21.4544 17.257C21.4445 17.2808 21.4334 17.304 21.4213 17.3262C21.9696 18.7741 22.312 20.4099 22.4688 22.3061C22.5027 22.7161 22.1973 23.0766 21.7872 23.1106C21.3771 23.1445 21.0166 22.839 20.9827 22.4289C20.7177 19.2239 19.8621 16.8401 18.3085 14.8511ZM39.1337 0.122276C40.7277 1.99863 42.3216 3.87713 43.9156 5.75348C44.0067 5.85795 44.0245 5.99803 43.9668 6.12478C43.909 6.2492 43.7911 6.32478 43.6511 6.32478H41.4235V17.9318C41.4235 18.3142 41.1123 18.6254 40.7299 18.6254H37.0106C36.6282 18.6254 36.3147 18.3142 36.3147 17.9318V6.32478H34.0871C33.9493 6.32478 33.8315 6.2492 33.7737 6.12478C33.7137 5.99803 33.7336 5.85795 33.8226 5.75348C35.4166 3.87713 37.0106 1.99863 38.6045 0.122276C38.6735 0.0399819 38.7646 0 38.8691 0C38.9758 0 39.067 0.0399819 39.1337 0.122276ZM16.2506 20.9987C18.7883 20.9987 20.8779 23.0694 20.8779 25.6098V35.847C20.4312 35.354 19.9003 34.9388 19.3077 34.6243C18.9442 34.4314 18.4926 34.5699 18.2997 34.9334C18.1068 35.2968 18.2453 35.7486 18.6087 35.9415C19.9593 36.6583 20.8779 38.0808 20.8779 39.7164C20.8779 42.0771 18.9629 43.9894 16.605 43.9894H4.27629C1.92379 43.9894 0 42.0662 0 39.7164C0 37.8351 1.21623 36.2366 2.90498 35.6649C2.95484 35.6544 3.00284 35.6391 3.0486 35.6191C3.43751 35.5027 3.84963 35.4402 4.27629 35.4402C5.35562 35.4402 6.34351 35.8446 7.09627 36.5061C7.40541 36.7777 7.8769 36.7472 8.14848 36.4381C8.42006 36.129 8.38967 35.6575 8.08054 35.3858C7.06515 34.4937 5.73223 33.949 4.27629 33.949C4.07293 33.949 3.872 33.9595 3.67405 33.98C4.11581 32.536 5.30771 31.4108 6.79068 31.0616C6.98462 31.0159 7.15219 30.8944 7.25611 30.7245C7.35993 30.5544 7.39143 30.3498 7.34343 30.1564C7.26347 29.8337 7.22237 29.497 7.22237 29.1494C7.22237 26.8477 9.06629 24.9479 11.3654 24.8768C12.6253 24.9155 13.7492 25.5079 14.5093 26.414C14.7738 26.7292 15.2445 26.7704 15.5597 26.5059C15.875 26.2415 15.9162 25.7709 15.6517 25.4556C14.8238 24.4687 13.6748 23.76 12.3683 23.4965C13.0457 22.027 14.5346 20.9987 16.2506 20.9987ZM13.6108 38.3456C12.6227 37.3023 12.1822 35.7885 12.5835 34.2966L12.5839 34.2951C13.0239 32.6456 14.3752 31.4838 15.9501 31.196C16.3548 31.122 16.6234 30.7333 16.5494 30.3285C16.4754 29.9237 16.0867 29.6551 15.6819 29.7291C13.5578 30.1174 11.7367 31.6859 11.1431 33.9108C10.6022 35.9214 11.1953 37.9636 12.528 39.371C12.811 39.6698 13.2833 39.6826 13.5821 39.3997C13.8809 39.1167 13.8938 38.6444 13.6108 38.3456ZM27.0038 20.9987C28.7199 20.9987 30.2087 22.027 30.8862 23.4965C29.5796 23.76 28.4307 24.4687 27.6027 25.4556C27.3382 25.7709 27.3795 26.2415 27.6948 26.5059C28.01 26.7704 28.4806 26.7292 28.7451 26.414C29.5052 25.5079 30.6291 24.9155 31.8891 24.8768C34.1882 24.9479 36.0321 26.8477 36.0321 29.1494C36.0321 29.497 35.991 29.8337 35.911 30.1564C35.863 30.3498 35.8945 30.5544 35.9983 30.7245C36.1023 30.8944 36.2698 31.0159 36.4638 31.0616C37.9467 31.4108 39.1386 32.536 39.5804 33.98C39.3824 33.9595 39.1815 33.949 38.9782 33.949C37.5222 33.949 36.1893 34.4937 35.1739 35.3858C34.8648 35.6575 34.8344 36.129 35.106 36.4381C35.3775 36.7472 35.849 36.7777 36.1582 36.5061C36.9109 35.8446 37.8988 35.4402 38.9782 35.4402C39.4048 35.4402 39.8169 35.5027 40.2059 35.6191C40.2516 35.6391 40.2996 35.6544 40.3495 35.6649C42.0382 36.2366 43.2544 37.8351 43.2544 39.7164C43.2544 42.0662 41.3307 43.9894 38.9782 43.9894H26.6495C24.2916 43.9894 22.3765 42.0771 22.3765 39.7164C22.3765 38.0808 23.2952 36.6583 24.6457 35.9415C25.0092 35.7486 25.1477 35.2968 24.9548 34.9334C24.7618 34.5699 24.3102 34.4314 23.9467 34.6243C23.3542 34.9388 22.8232 35.354 22.3765 35.847V25.6098C22.3765 23.0694 24.4661 20.9987 27.0038 20.9987ZM30.5745 39.371C31.9072 37.9636 32.5003 35.9214 31.959 33.9093C31.3658 31.6859 29.5448 30.1174 27.4206 29.7291C27.0158 29.6551 26.6271 29.9237 26.5531 30.3285C26.4791 30.7333 26.7477 31.122 27.1526 31.196C28.7273 31.4838 30.0786 32.6456 30.5187 34.2951L30.519 34.2966C30.9204 35.7885 30.4798 37.3023 29.4917 38.3456C29.2089 38.6444 29.2217 39.1167 29.5205 39.3997C29.8193 39.6826 30.2916 39.6698 30.5745 39.371Z" fill="white"/>
</svg>
