<svg width="52" height="45" viewBox="0 0 52 45" fill="none" xmlns="http://www.w3.org/2000/svg">
<path fill-rule="evenodd" clip-rule="evenodd" d="M26.3942 19.4499C26.545 19.1893 26.8788 19.101 27.1398 19.2516C27.4009 19.4022 27.4893 19.7355 27.3385 19.9961L24.7354 24.4972C24.5846 24.7578 24.2507 24.8461 23.9897 24.6955C23.9803 24.6903 23.971 24.6841 23.9616 24.6779L17.1912 20.7759C16.9302 20.6263 16.8407 20.2941 16.9905 20.0335C17.1402 19.7728 17.473 19.6835 17.7341 19.8331L24.0625 23.4807L26.3942 19.4499ZM43.5375 8.8808C42.9853 8.19447 42.3956 7.53721 41.7695 6.9111C41.1497 6.29122 40.4945 5.70249 39.807 5.14906L37.4951 7.45725C37.2913 7.66077 36.9658 7.67011 36.7505 7.48425C36.1296 7.02843 35.4838 6.60583 34.815 6.22061C34.138 5.83124 33.435 5.47717 32.707 5.16152C32.4553 5.05353 32.3274 4.77838 32.397 4.52191H32.395L33.2405 1.36955C32.4178 1.05286 31.5775 0.779783 30.7268 0.552389C29.8709 0.322919 29.0056 0.140174 28.1382 0.004153L27.2917 3.15651C27.2199 3.4244 26.961 3.59157 26.6926 3.55627C25.8991 3.46593 25.116 3.42128 24.3464 3.42024C23.5622 3.41921 22.777 3.46489 21.9929 3.55315C21.7214 3.58326 21.4739 3.40778 21.4053 3.15236L20.5587 0C19.6893 0.136021 18.8271 0.318766 17.9754 0.547198C17.1163 0.777706 16.276 1.05286 15.4575 1.36955L16.3041 4.52398C16.3779 4.7981 16.2282 5.07949 15.9671 5.17605C15.2516 5.48859 14.5579 5.83954 13.8902 6.22476C13.207 6.61829 12.5486 7.04816 11.9184 7.51333C11.699 7.67427 11.3984 7.64727 11.2112 7.46037L11.2091 7.46245L8.89616 5.15217C8.20976 5.70352 7.5504 6.29225 6.92328 6.91733C6.3024 7.53617 5.71272 8.19031 5.15736 8.87665L7.46928 11.1848C7.67312 11.3884 7.68248 11.7134 7.49632 11.9283C7.03976 12.5482 6.61648 13.193 6.23064 13.8606C5.84064 14.5366 5.486 15.2385 5.16984 15.9653C5.06168 16.2166 4.78608 16.3443 4.5292 16.2747V16.2768L1.37176 15.4316C1.05456 16.254 0.78104 17.0919 0.55224 17.9423C0.32344 18.7968 0.13936 19.6597 0.00312 20.5267L3.16056 21.3719C3.42888 21.4435 3.59632 21.702 3.56096 21.9699C3.47048 22.7632 3.42576 23.5451 3.42472 24.3134C3.42368 25.0963 3.46944 25.8803 3.55784 26.6621C3.588 26.9331 3.41224 27.1803 3.1564 27.2488L0 28.0929C0.13624 28.961 0.31928 29.8218 0.54912 30.6721C0.78 31.5298 1.0556 32.3688 1.3728 33.187L4.53232 32.3418C4.80688 32.2681 5.08872 32.4176 5.18544 32.6782C5.49848 33.3926 5.84896 34.0841 6.2348 34.7507H6.23584C6.63416 35.4391 7.06472 36.0974 7.52544 36.7214C7.68664 36.9405 7.6596 37.2406 7.4724 37.4275L7.47448 37.4296L5.16152 39.7388C5.71376 40.4251 6.30344 41.0824 6.92952 41.7085C7.54936 42.3284 8.20456 42.9171 8.892 43.4716L12.948 39.4221C10.6694 37.7286 8.78384 35.5346 7.45472 33.0042C6.07464 30.3773 5.29464 27.391 5.29464 24.2252C5.29464 18.9962 7.41728 14.2614 10.8503 10.8339C14.2834 7.40638 19.0247 5.28715 24.2632 5.28715C27.4342 5.28715 30.4252 6.06694 33.0564 7.44376C35.5909 8.77074 37.7874 10.6532 39.4846 12.9282L43.5375 8.8808ZM48.3787 23.9261C46.1417 21.6927 43.0498 20.3107 39.6354 20.3107C36.2211 20.3107 33.1302 21.6927 30.8922 23.9261C28.6551 26.1596 27.2709 29.2465 27.2709 32.6553C27.2709 36.0642 28.6551 39.1501 30.8922 41.3845C33.1292 43.618 36.2211 45 39.6354 45C43.0498 45 46.1406 43.618 48.3787 41.3845C50.6158 39.1511 52 36.0642 52 32.6553C52 29.2465 50.6158 26.1596 48.3787 23.9261ZM26.6178 36.0756C26.3307 34.9833 26.1778 33.837 26.1778 32.6553C26.1778 28.9454 27.6848 25.5854 30.1194 23.1547C31.6202 21.6564 33.4745 20.51 35.5462 19.8507C35.387 19.4426 35.2071 19.045 35.0064 18.6598L33.852 19.3253C33.591 19.4759 33.2571 19.3876 33.1063 19.127C32.9555 18.8664 33.0439 18.5331 33.305 18.3825L34.4604 17.717C33.6326 16.4253 32.5645 15.3018 31.3206 14.4088C31.1438 14.2822 30.9639 14.1596 30.7798 14.0423L30.1132 15.1949C29.9634 15.4555 29.6306 15.5448 29.3696 15.3953C29.1086 15.2457 29.0191 14.9135 29.1689 14.6529L29.8366 13.4982C28.3213 12.7122 26.6178 12.2367 24.8092 12.1567V13.4868C24.8092 13.7879 24.5648 14.033 24.2622 14.033C23.9606 14.033 23.7151 13.789 23.7151 13.4868V12.1567C21.9086 12.2367 20.2051 12.7122 18.6898 13.4993L19.3554 14.6508C19.5062 14.9114 19.4178 15.2447 19.1568 15.3953C18.8958 15.5458 18.5619 15.4576 18.4111 15.1969L17.7445 14.0444C17.0061 14.5168 16.3228 15.0661 15.7061 15.6829C15.0883 16.2996 14.5382 16.9818 14.065 17.719L15.2173 18.3836C15.4783 18.5331 15.5678 18.8653 15.418 19.126C15.2682 19.3866 14.9354 19.4759 14.6744 19.3264L13.519 18.6608C12.7306 20.1747 12.2543 21.8765 12.1742 23.6811H13.5065C13.807 23.6811 14.0514 23.9251 14.0514 24.2252C14.0514 24.5253 13.807 24.7693 13.5065 24.7693H12.1742C12.2543 26.5739 12.7306 28.2746 13.519 29.7885L14.6723 29.124C14.9334 28.9734 15.2672 29.0617 15.418 29.3223C15.5688 29.5829 15.4804 29.9162 15.2194 30.0668L14.065 30.7324C14.5382 31.4696 15.0883 32.1518 15.7061 32.7675C16.3238 33.3843 17.0071 33.9335 17.7455 34.406L18.4111 33.2555C18.5609 32.9949 18.8937 32.9056 19.1547 33.0551C19.4158 33.2046 19.5052 33.5369 19.3554 33.7975L18.6888 34.9511C20.2051 35.7381 21.9097 36.2137 23.7172 36.2936V34.9635C23.7172 34.6635 23.9616 34.4195 24.2622 34.4195C24.5627 34.4195 24.8071 34.6635 24.8071 34.9635V36.2936C25.1202 36.2801 25.428 36.2542 25.7327 36.2178C26.0333 36.1794 26.3276 36.1327 26.6178 36.0756ZM27.8595 39.1646C27.4986 38.5157 27.1898 37.8324 26.9391 37.1233C26.5834 37.197 26.2236 37.2562 25.8617 37.2998C25.3354 37.3631 24.8019 37.3963 24.2632 37.3963C20.6201 37.3963 17.3222 35.9219 14.9344 33.5379C12.5466 31.1539 11.0698 27.8614 11.0698 24.2241C11.0698 20.5869 12.5466 17.2944 14.9344 14.9104C17.3222 12.5264 20.6201 11.0519 24.2632 11.0519C27.1326 11.0519 29.7898 11.9688 31.9571 13.5252C34.0454 15.0256 35.6772 17.1199 36.6028 19.561C37.3225 19.3959 38.064 19.2879 38.8222 19.2433C37.8113 16.2976 35.9289 13.7547 33.4818 11.9231C30.915 10.0022 27.7233 8.86315 24.2632 8.86315C20.0148 8.86315 16.1678 10.5826 13.3838 13.3622C10.5997 16.1418 8.87744 19.9826 8.87744 24.2241C8.87744 28.4657 10.5997 32.3065 13.3838 35.0861C16.1678 37.8657 20.0148 39.5851 24.2632 39.5851C25.0058 39.5851 25.7296 39.5343 26.4326 39.4346C26.9173 39.366 27.3926 39.2757 27.8595 39.1646ZM46.2332 26.0682C47.9211 27.7534 48.9653 30.0824 48.9653 32.6543C48.9653 35.2262 47.9211 37.5552 46.2332 39.2404C44.5453 40.9256 42.2126 41.9681 39.6365 41.9681C37.0604 41.9681 34.7277 40.9256 33.0398 39.2404C31.3518 37.5552 30.3077 35.2262 30.3077 32.6543C30.3077 30.0824 31.3518 27.7534 33.0398 26.0682C34.7277 24.383 37.0604 23.3405 39.6365 23.3405C42.2115 23.3405 44.5442 24.383 46.2332 26.0682ZM39.6354 22.2482C42.5142 22.2482 45.1194 23.4132 47.0059 25.2967C48.8925 27.1803 50.0594 29.7813 50.0594 32.6553C50.0594 35.5294 48.8925 38.1304 47.0059 40.014C45.1194 41.8975 42.5142 43.0625 39.6354 43.0625C36.7567 43.0625 34.1515 41.8975 32.265 40.014C30.3784 38.1304 29.2115 35.5294 29.2115 32.6553C29.2115 29.7813 30.3784 27.1803 32.265 25.2967C34.1515 23.4132 36.7567 22.2482 39.6354 22.2482ZM34.5852 32.3044L37.3578 35.0726C37.571 35.2854 37.9174 35.2854 38.1316 35.0726L44.6867 28.529L45.3492 29.1905L37.7447 36.7827L33.9227 32.9668L34.5852 32.3044ZM32.7621 32.5795L34.1983 31.1456C34.4115 30.9328 34.7578 30.9328 34.9721 31.1456L37.7447 33.9138L44.2988 27.3692C44.512 27.1564 44.8583 27.1564 45.0726 27.3692L46.5088 28.8032C46.722 29.016 46.722 29.3618 46.5088 29.5757L38.1316 37.9394C37.9184 38.1522 37.5721 38.1522 37.3578 37.9394L32.7621 33.351C32.5489 33.1382 32.5489 32.7924 32.7621 32.5795Z" fill="white"/>
</svg>
