<svg width="36" height="51" viewBox="0 0 36 51" fill="none" xmlns="http://www.w3.org/2000/svg">
<path d="M29.9811 7.28571H23.6165C23.8406 6.71324 23.9849 6.10616 23.9849 5.46429C23.9849 2.4511 21.2952 0 17.9887 0C14.6822 0 11.9924 2.4511 11.9924 5.46429C11.9924 6.10616 12.137 6.71324 12.3608 7.28571H5.99622C2.68971 7.28571 0 9.73681 0 12.75V45.5357C0 48.5489 2.68971 51 5.99622 51H29.9811C33.2876 51 35.9773 48.5489 35.9773 45.5357V12.75C35.9773 9.73681 33.2876 7.28571 29.9811 7.28571ZM17.9887 3.64286C19.0906 3.64286 19.9874 4.45922 19.9874 5.46429C19.9874 6.46935 19.0906 7.28571 17.9887 7.28571C16.8868 7.28571 15.9899 6.46935 15.9899 5.46429C15.9899 4.45922 16.8868 3.64286 17.9887 3.64286ZM7.99497 17.3036C7.99497 16.8005 8.44248 16.3929 8.99434 16.3929H10.9931C11.5449 16.3929 11.9924 16.8005 11.9924 17.3036V19.125C11.9924 19.6279 11.5449 20.0357 10.9931 20.0357H8.99434C8.44248 20.0357 7.99497 19.6279 7.99497 19.125V17.3036ZM7.99497 26.4107V24.5893C7.99497 24.0862 8.44248 23.6786 8.99434 23.6786H10.9931C11.5449 23.6786 11.9924 24.0862 11.9924 24.5893V26.4107C11.9924 26.9136 11.5449 27.3214 10.9931 27.3214H8.99434C8.44248 27.3214 7.99497 26.9136 7.99497 26.4107ZM26.8479 32.8414L16.6691 43.6378C16.2885 44.0434 15.7341 44.2727 15.1535 44.2727C15.1067 44.2727 15.0597 44.2709 15.0119 44.2675C14.3815 44.2283 13.8095 43.917 13.4689 43.4314L8.9008 36.9133C8.60378 36.4892 8.7401 35.9262 9.2052 35.6554L10.8895 34.6753C11.3547 34.4046 11.9725 34.5288 12.2695 34.9525L15.3905 39.4041L23.8166 30.4681C24.1762 30.0867 24.8072 30.0432 25.2257 30.3709L26.741 31.5568C27.1597 31.885 27.2077 32.46 26.8479 32.8414ZM27.9824 26.4107C27.9824 26.9136 27.5349 27.3214 26.983 27.3214H14.9906C14.4387 27.3214 13.9912 26.9136 13.9912 26.4107V24.5893C13.9912 24.0862 14.4387 23.6786 14.9906 23.6786H26.983C27.5349 23.6786 27.9824 24.0862 27.9824 24.5893V26.4107ZM27.9824 19.125C27.9824 19.6279 27.5349 20.0357 26.983 20.0357H14.9906C14.4387 20.0357 13.9912 19.6279 13.9912 19.125V17.3036C13.9912 16.8005 14.4387 16.3929 14.9906 16.3929H26.983C27.5349 16.3929 27.9824 16.8005 27.9824 17.3036V19.125Z" fill="white"/>
</svg>
