<svg width="378" height="43" viewBox="0 0 378 43" fill="none" xmlns="http://www.w3.org/2000/svg">
<mask id="mask0_1_592" style="mask-type:alpha" maskUnits="userSpaceOnUse" x="0" y="-176" width="383" height="219">
<rect x="1.56588" y="-173.981" width="379.31" height="214.735" rx="12.527" fill="#D9D9D9" stroke="#252627" stroke-width="3.13176"/>
</mask>
<g mask="url(#mask0_1_592)">
<path d="M32.9157 0H52.508L5.4865 70.5323H-13.5833L32.9157 0Z" fill="#252627"/>
<path d="M219.955 0H239.547L192.525 70.5323H173.455L219.955 0Z" fill="#252627"/>
<path d="M126.435 0H146.027L99.0059 70.5323H79.9361L126.435 0Z" fill="#252627"/>
<path d="M313.482 0H333.074L286.053 70.5323H266.983L313.482 0Z" fill="#252627"/>
<path d="M77.8417 0H97.434L50.4124 70.5323H31.3426L77.8417 0Z" fill="#252627"/>
<path d="M264.888 0H284.481L237.459 70.5323H218.389L264.888 0Z" fill="#252627"/>
<path d="M171.369 0H190.961L143.94 70.5323H124.87L171.369 0Z" fill="#252627"/>
<path d="M358.408 0H378L330.978 70.5323H311.909L358.408 0Z" fill="#252627"/>
</g>
</svg>
