<svg width="304" height="180" viewBox="0 0 304 180" fill="none" xmlns="http://www.w3.org/2000/svg">
<path opacity="0.3" d="M100.496 0.600586C104.362 2.19186 106.471 5.55796 108.272 9.42285C108.735 10.414 109.173 11.4301 109.616 12.4531C110.059 13.4736 110.507 14.5003 110.982 15.502C111.932 17.5033 113.006 19.4297 114.414 21.0488L114.416 21.0518C116.491 23.4083 119.578 24.9032 122.692 26.2158C125.849 27.5462 129.021 28.6871 131.477 30.3301L131.486 30.3359C132.496 30.9779 133.131 31.5182 133.573 32.166C133.999 32.7896 134.27 33.5537 134.482 34.6904C133.918 36.3007 132.782 37.649 131.263 38.8369C129.704 40.0555 127.772 41.0848 125.717 42.0469C124.691 42.5272 123.641 42.9882 122.596 43.4463C121.553 43.9035 120.514 44.3582 119.521 44.8242C117.541 45.7532 115.701 46.7435 114.32 47.9199L114.314 47.9248C111.58 50.3291 109.623 53.8802 107.678 57.4746C105.775 60.9909 103.872 64.5639 101.256 67.3848C97.0837 65.2548 95.1347 61.6617 93.3789 57.7979C91.5958 53.8739 89.9968 49.6057 86.3369 46.7393L86.3359 46.7383L86.0938 46.5547C84.8591 45.6438 83.2779 44.8418 81.5801 44.0781C79.793 43.2743 77.7509 42.4607 75.8857 41.6406C73.9842 40.8046 72.1782 39.9256 70.6885 38.9209C69.2454 37.9477 68.1374 36.8802 67.5146 35.6602C67.5823 35.0817 67.6509 34.6467 67.7744 34.2344C67.9057 33.7961 68.1031 33.3641 68.4512 32.8125C70.3498 30.0374 73.7111 28.4091 77.3555 26.8535C80.9419 25.3226 84.8164 23.8607 87.4072 21.373H87.4082C90.3512 18.5363 92.4122 14.7809 94.3643 11.0098C96.2706 7.32685 98.0729 3.63534 100.496 0.600586Z" stroke="white"/>
<path opacity="0.3" d="M33.4961 75.6006C37.3621 77.1919 39.4707 80.558 41.2725 84.4229C41.7345 85.414 42.1726 86.4301 42.6162 87.4531C43.0587 88.4736 43.507 89.5003 43.9824 90.502C44.9324 92.5033 46.0058 94.4297 47.4141 96.0488L47.416 96.0518C49.4908 98.4083 52.5781 99.9032 55.6924 101.216C58.849 102.546 62.0214 103.687 64.4766 105.33L64.4863 105.336C65.4957 105.978 66.1312 106.518 66.5732 107.166C66.9987 107.79 67.2702 108.554 67.4824 109.69C66.9185 111.301 65.7822 112.649 64.2627 113.837C62.7039 115.055 60.772 116.085 58.7168 117.047C57.6908 117.527 56.6407 117.988 55.5957 118.446C54.5528 118.903 53.5138 119.358 52.5205 119.824C50.5406 120.753 48.7014 121.743 47.3203 122.92L47.3145 122.925C44.5802 125.329 42.6229 128.88 40.6777 132.475C38.7749 135.991 36.8718 139.564 34.2559 142.385C30.0837 140.255 28.1347 136.662 26.3789 132.798C24.5958 128.874 22.9968 124.606 19.3369 121.739L19.3359 121.738L19.0938 121.555C17.8591 120.644 16.2779 119.842 14.5801 119.078C12.793 118.274 10.7509 117.461 8.88574 116.641C6.98419 115.805 5.17824 114.926 3.68848 113.921C2.24545 112.948 1.13739 111.88 0.514648 110.66C0.582277 110.082 0.650904 109.647 0.774414 109.234C0.905722 108.796 1.10313 108.364 1.45117 107.812C3.34976 105.037 6.71105 103.409 10.3555 101.854C13.9419 100.323 17.8164 98.8607 20.4072 96.373H20.4082C23.3512 93.5363 25.4122 89.7809 27.3643 86.0098C29.2706 82.3269 31.0729 78.6353 33.4961 75.6006Z" stroke="white"/>
<path opacity="0.3" d="M134.496 37.6006C138.362 39.1919 140.471 42.558 142.272 46.4229C142.735 47.414 143.173 48.4301 143.616 49.4531C144.059 50.4736 144.507 51.5003 144.982 52.502C145.932 54.5033 147.006 56.4297 148.414 58.0488L148.416 58.0518C150.491 60.4083 153.578 61.9032 156.692 63.2158C159.849 64.5462 163.021 65.6871 165.477 67.3301L165.486 67.3359C166.496 67.9779 167.131 68.5182 167.573 69.166C167.999 69.7896 168.27 70.5537 168.482 71.6904C167.918 73.3007 166.782 74.649 165.263 75.8369C163.704 77.0555 161.772 78.0848 159.717 79.0469C158.691 79.5272 157.641 79.9882 156.596 80.4463C155.553 80.9035 154.514 81.3582 153.521 81.8242C151.541 82.7532 149.701 83.7435 148.32 84.9199L148.314 84.9248C145.58 87.3291 143.623 90.8802 141.678 94.4746C139.775 97.9909 137.872 101.564 135.256 104.385C131.084 102.255 129.135 98.6617 127.379 94.7979C125.596 90.8739 123.997 86.6057 120.337 83.7393L120.336 83.7383L120.094 83.5547C118.859 82.6438 117.278 81.8418 115.58 81.0781C113.793 80.2743 111.751 79.4607 109.886 78.6406C107.984 77.8046 106.178 76.9256 104.688 75.9209C103.245 74.9477 102.137 73.8802 101.515 72.6602C101.582 72.0817 101.651 71.6467 101.774 71.2344C101.906 70.7961 102.103 70.3641 102.451 69.8125C104.35 67.0374 107.711 65.4091 111.355 63.8535C114.942 62.3226 118.816 60.8607 121.407 58.373H121.408C124.351 55.5363 126.412 51.7809 128.364 48.0098C130.271 44.3269 132.073 40.6353 134.496 37.6006Z" stroke="white"/>
<path opacity="0.3" d="M67.0068 112.603C70.8073 114.194 72.8826 117.556 74.6572 121.42C75.1126 122.411 75.5453 123.427 75.9824 124.45C76.4184 125.471 76.8588 126.498 77.3271 127.499C78.2631 129.5 79.3214 131.427 80.709 133.046L80.7109 133.049C82.7558 135.406 85.7984 136.902 88.8672 138.215C91.9783 139.546 95.1033 140.686 97.5215 142.328L97.5312 142.334C98.5251 142.975 99.1506 143.515 99.5859 144.163C100.006 144.787 100.274 145.552 100.483 146.69C99.9277 148.303 98.8075 149.651 97.3105 150.839C95.7753 152.057 93.8724 153.087 91.8477 154.049C90.8369 154.529 89.8021 154.989 88.7725 155.447C87.7451 155.904 86.7218 156.359 85.7432 156.825C83.7919 157.754 81.9777 158.745 80.6162 159.922L80.6104 159.928C77.9161 162.332 75.9876 165.884 74.0713 169.478C72.1977 172.991 70.3244 176.562 67.75 179.382C63.6472 177.253 61.7284 173.662 59.999 169.8C58.2423 165.876 56.6665 161.608 53.0596 158.741H53.0586C51.8098 157.753 50.1557 156.894 48.3711 156.079C46.6109 155.276 44.5973 154.462 42.7607 153.643C40.8873 152.807 39.1079 151.927 37.6406 150.923C36.2191 149.95 35.1272 148.882 34.5137 147.661C34.5804 147.082 34.6485 146.646 34.7705 146.232C34.8993 145.796 35.0932 145.367 35.4326 144.819C37.3017 142.039 40.6147 140.41 44.209 138.853C47.7419 137.322 51.5605 135.86 54.1143 133.371L54.1152 133.37C57.0153 130.533 59.0465 126.778 60.9697 123.007C62.847 119.326 64.6214 115.636 67.0068 112.603Z" stroke="white"/>
<path opacity="0.3" d="M168.496 0.600586C172.362 2.19186 174.471 5.55796 176.272 9.42285C176.735 10.414 177.173 11.4301 177.616 12.4531C178.059 13.4736 178.507 14.5003 178.982 15.502C179.932 17.5033 181.006 19.4297 182.414 21.0488L182.416 21.0518C184.491 23.4083 187.578 24.9032 190.692 26.2158C193.849 27.5462 197.021 28.6871 199.477 30.3301L199.486 30.3359C200.496 30.9779 201.131 31.5182 201.573 32.166C201.999 32.7896 202.27 33.5537 202.482 34.6904C201.918 36.3007 200.782 37.649 199.263 38.8369C197.704 40.0555 195.772 41.0848 193.717 42.0469C192.691 42.5272 191.641 42.9882 190.596 43.4463C189.553 43.9035 188.514 44.3582 187.521 44.8242C185.541 45.7532 183.701 46.7435 182.32 47.9199L182.314 47.9248C179.58 50.3291 177.623 53.8802 175.678 57.4746C173.775 60.9909 171.872 64.5639 169.256 67.3848C165.084 65.2548 163.135 61.6617 161.379 57.7979C159.596 53.8739 157.997 49.6057 154.337 46.7393L154.336 46.7383L154.094 46.5547C152.859 45.6438 151.278 44.8418 149.58 44.0781C147.793 43.2743 145.751 42.4607 143.886 41.6406C141.984 40.8046 140.178 39.9256 138.688 38.9209C137.245 37.9477 136.137 36.8802 135.515 35.6602C135.582 35.0817 135.651 34.6467 135.774 34.2344C135.906 33.7961 136.103 33.3641 136.451 32.8125C138.35 30.0374 141.711 28.4091 145.355 26.8535C148.942 25.3226 152.816 23.8607 155.407 21.373H155.408C158.351 18.5363 160.412 14.7809 162.364 11.0098C164.271 7.32685 166.073 3.63534 168.496 0.600586Z" stroke="white"/>
<path opacity="0.3" d="M101.007 75.6025C104.807 77.1938 106.883 80.5564 108.657 84.4199C109.113 85.4112 109.545 86.4272 109.982 87.4502C110.418 88.4706 110.859 89.4976 111.327 90.499C112.263 92.5002 113.321 94.4266 114.709 96.0459L114.711 96.0488C116.756 98.4062 119.798 99.9021 122.867 101.215C125.978 102.546 129.103 103.686 131.521 105.328L131.531 105.334C132.525 105.975 133.151 106.515 133.586 107.163C134.006 107.787 134.274 108.552 134.483 109.69C133.928 111.303 132.807 112.651 131.311 113.839C129.775 115.057 127.872 116.087 125.848 117.049C124.837 117.529 123.802 117.989 122.772 118.447C121.745 118.904 120.722 119.359 119.743 119.825C117.792 120.754 115.978 121.745 114.616 122.922L114.61 122.928C111.916 125.332 109.988 128.884 108.071 132.478C106.198 135.991 104.324 139.562 101.75 142.382C97.6472 140.253 95.7284 136.662 93.999 132.8C92.2423 128.876 90.6665 124.608 87.0596 121.741H87.0586C85.8098 120.753 84.1557 119.894 82.3711 119.079C80.6109 118.276 78.5973 117.462 76.7607 116.643C74.8873 115.807 73.1079 114.927 71.6406 113.923C70.2191 112.95 69.1272 111.882 68.5137 110.661C68.5804 110.082 68.6485 109.646 68.7705 109.232C68.8993 108.796 69.0932 108.367 69.4326 107.819C71.3017 105.039 74.6147 103.41 78.209 101.853C81.7419 100.322 85.5605 98.8596 88.1143 96.3711L88.1152 96.3701C91.0153 93.533 93.0465 89.7777 94.9697 86.0068C96.847 82.3261 98.6214 78.6362 101.007 75.6025Z" stroke="white"/>
<path opacity="0.3" d="M202.007 37.6025C205.807 39.1938 207.883 42.5564 209.657 46.4199C210.113 47.4112 210.545 48.4272 210.982 49.4502C211.418 50.4706 211.859 51.4976 212.327 52.499C213.263 54.5002 214.321 56.4266 215.709 58.0459L215.711 58.0488C217.756 60.4062 220.798 61.9021 223.867 63.2148C226.978 64.5457 230.103 65.6857 232.521 67.3281L232.531 67.334C233.525 67.9755 234.151 68.5155 234.586 69.1631C235.006 69.7873 235.274 70.5521 235.483 71.6904C234.928 73.3026 233.807 74.6512 232.311 75.8389C230.775 77.057 228.872 78.0868 226.848 79.0488C225.837 79.5291 224.802 79.9891 223.772 80.4473C222.745 80.9044 221.722 81.3592 220.743 81.8252C218.792 82.7544 216.978 83.7447 215.616 84.9219L215.61 84.9277C212.916 87.3325 210.988 90.8836 209.071 94.4775C207.198 97.9914 205.324 101.562 202.75 104.382C198.647 102.253 196.728 98.6624 194.999 94.7998C193.242 90.8763 191.666 86.6082 188.06 83.7412H188.059C186.81 82.7533 185.156 81.8938 183.371 81.0791C181.611 80.2756 179.597 79.4621 177.761 78.6426C175.887 77.8066 174.108 76.9272 172.641 75.9229C171.219 74.9498 170.127 73.8823 169.514 72.6611C169.58 72.0817 169.649 71.6457 169.771 71.2324C169.899 70.7961 170.093 70.3666 170.433 69.8193C172.302 67.0395 175.615 65.4096 179.209 63.8525C182.742 62.322 186.56 60.8596 189.114 58.3711L189.115 58.3701C192.015 55.533 194.046 51.7777 195.97 48.0068C197.847 44.3261 199.621 40.6362 202.007 37.6025Z" stroke="white"/>
<path opacity="0.3" d="M134.496 112.601C138.362 114.192 140.471 117.558 142.272 121.423C142.735 122.414 143.173 123.43 143.616 124.453C144.059 125.474 144.507 126.5 144.982 127.502C145.932 129.503 147.006 131.43 148.414 133.049L148.416 133.052C150.491 135.408 153.578 136.903 156.692 138.216C159.849 139.546 163.021 140.687 165.477 142.33L165.486 142.336C166.496 142.978 167.131 143.518 167.573 144.166C167.999 144.79 168.27 145.554 168.482 146.69C167.918 148.301 166.782 149.649 165.263 150.837C163.704 152.055 161.772 153.085 159.717 154.047C158.691 154.527 157.641 154.988 156.596 155.446C155.553 155.903 154.514 156.358 153.521 156.824C151.541 157.753 149.701 158.743 148.32 159.92L148.314 159.925C145.58 162.329 143.623 165.88 141.678 169.475C139.775 172.991 137.872 176.564 135.256 179.385C131.084 177.255 129.135 173.662 127.379 169.798C125.596 165.874 123.997 161.606 120.337 158.739L120.336 158.738L120.094 158.555C118.859 157.644 117.278 156.842 115.58 156.078C113.793 155.274 111.751 154.461 109.886 153.641C107.984 152.805 106.178 151.926 104.688 150.921C103.245 149.948 102.137 148.88 101.515 147.66C101.582 147.082 101.651 146.647 101.774 146.234C101.906 145.796 102.103 145.364 102.451 144.812C104.35 142.037 107.711 140.409 111.355 138.854C114.942 137.323 118.816 135.861 121.407 133.373H121.408C124.351 130.536 126.412 126.781 128.364 123.01C130.271 119.327 132.073 115.635 134.496 112.601Z" stroke="white"/>
<path opacity="0.3" d="M236.007 0.602539C239.807 2.19385 241.883 5.55644 243.657 9.41992C244.113 10.4112 244.545 11.4272 244.982 12.4502C245.418 13.4706 245.859 14.4976 246.327 15.499C247.263 17.5002 248.321 19.4266 249.709 21.0459L249.711 21.0488C251.756 23.4062 254.798 24.9021 257.867 26.2148C260.978 27.5457 264.103 28.6857 266.521 30.3281L266.531 30.334C267.525 30.9755 268.151 31.5155 268.586 32.1631C269.006 32.7873 269.274 33.5521 269.483 34.6904C268.928 36.3026 267.807 37.6512 266.311 38.8389C264.775 40.057 262.872 41.0868 260.848 42.0488C259.837 42.5291 258.802 42.9891 257.772 43.4473C256.745 43.9044 255.722 44.3592 254.743 44.8252C252.792 45.7544 250.978 46.7447 249.616 47.9219L249.61 47.9277C246.916 50.3325 244.988 53.8836 243.071 57.4775C241.198 60.9914 239.324 64.5622 236.75 67.3818C232.647 65.2526 230.728 61.6624 228.999 57.7998C227.242 53.8763 225.666 49.6082 222.06 46.7412H222.059C220.81 45.7533 219.156 44.8938 217.371 44.0791C215.611 43.2756 213.597 42.4621 211.761 41.6426C209.887 40.8066 208.108 39.9272 206.641 38.9229C205.219 37.9498 204.127 36.8823 203.514 35.6611C203.58 35.0817 203.649 34.6457 203.771 34.2324C203.899 33.7961 204.093 33.3666 204.433 32.8193C206.302 30.0395 209.615 28.4096 213.209 26.8525C216.742 25.322 220.56 23.8596 223.114 21.3711L223.115 21.3701C226.015 18.533 228.046 14.7777 229.97 11.0068C231.847 7.32608 233.621 3.63625 236.007 0.602539Z" stroke="white"/>
<path opacity="0.3" d="M168.496 75.6006C172.362 77.1919 174.471 80.558 176.272 84.4229C176.735 85.414 177.173 86.4301 177.616 87.4531C178.059 88.4736 178.507 89.5003 178.982 90.502C179.932 92.5033 181.006 94.4297 182.414 96.0488L182.416 96.0518C184.491 98.4083 187.578 99.9032 190.692 101.216C193.849 102.546 197.021 103.687 199.477 105.33L199.486 105.336C200.496 105.978 201.131 106.518 201.573 107.166C201.999 107.79 202.27 108.554 202.482 109.69C201.918 111.301 200.782 112.649 199.263 113.837C197.704 115.055 195.772 116.085 193.717 117.047C192.691 117.527 191.641 117.988 190.596 118.446C189.553 118.903 188.514 119.358 187.521 119.824C185.541 120.753 183.701 121.743 182.32 122.92L182.314 122.925C179.58 125.329 177.623 128.88 175.678 132.475C173.775 135.991 171.872 139.564 169.256 142.385C165.084 140.255 163.135 136.662 161.379 132.798C159.596 128.874 157.997 124.606 154.337 121.739L154.336 121.738L154.094 121.555C152.859 120.644 151.278 119.842 149.58 119.078C147.793 118.274 145.751 117.461 143.886 116.641C141.984 115.805 140.178 114.926 138.688 113.921C137.245 112.948 136.137 111.88 135.515 110.66C135.582 110.082 135.651 109.647 135.774 109.234C135.906 108.796 136.103 108.364 136.451 107.812C138.35 105.037 141.711 103.409 145.355 101.854C148.942 100.323 152.816 98.8607 155.407 96.373H155.408C158.351 93.5363 160.412 89.7809 162.364 86.0098C164.271 82.3269 166.073 78.6353 168.496 75.6006Z" stroke="white"/>
<path opacity="0.3" d="M269.496 37.6006C273.362 39.1919 275.471 42.558 277.272 46.4229C277.735 47.414 278.173 48.4301 278.616 49.4531C279.059 50.4736 279.507 51.5003 279.982 52.502C280.932 54.5033 282.006 56.4297 283.414 58.0488L283.416 58.0518C285.491 60.4083 288.578 61.9032 291.692 63.2158C294.849 64.5462 298.021 65.6871 300.477 67.3301L300.486 67.3359C301.496 67.9779 302.131 68.5182 302.573 69.166C302.999 69.7896 303.27 70.5537 303.482 71.6904C302.918 73.3007 301.782 74.649 300.263 75.8369C298.704 77.0555 296.772 78.0848 294.717 79.0469C293.691 79.5272 292.641 79.9882 291.596 80.4463C290.553 80.9035 289.514 81.3582 288.521 81.8242C286.541 82.7532 284.701 83.7435 283.32 84.9199L283.314 84.9248C280.58 87.3291 278.623 90.8802 276.678 94.4746C274.775 97.9909 272.872 101.564 270.256 104.385C266.084 102.255 264.135 98.6617 262.379 94.7979C260.596 90.8739 258.997 86.6057 255.337 83.7393L255.336 83.7383L255.094 83.5547C253.859 82.6438 252.278 81.8418 250.58 81.0781C248.793 80.2743 246.751 79.4607 244.886 78.6406C242.984 77.8046 241.178 76.9256 239.688 75.9209C238.245 74.9477 237.137 73.8802 236.515 72.6602C236.582 72.0817 236.651 71.6467 236.774 71.2344C236.906 70.7961 237.103 70.3641 237.451 69.8125C239.35 67.0374 242.711 65.4091 246.355 63.8535C249.942 62.3226 253.816 60.8607 256.407 58.373H256.408C259.351 55.5363 261.412 51.7809 263.364 48.0098C265.271 44.3269 267.073 40.6353 269.496 37.6006Z" stroke="white"/>
<path opacity="0.3" d="M202.496 112.601C206.362 114.192 208.471 117.558 210.272 121.423C210.735 122.414 211.173 123.43 211.616 124.453C212.059 125.474 212.507 126.5 212.982 127.502C213.932 129.503 215.006 131.43 216.414 133.049L216.416 133.052C218.491 135.408 221.578 136.903 224.692 138.216C227.849 139.546 231.021 140.687 233.477 142.33L233.486 142.336C234.496 142.978 235.131 143.518 235.573 144.166C235.999 144.79 236.27 145.554 236.482 146.69C235.918 148.301 234.782 149.649 233.263 150.837C231.704 152.055 229.772 153.085 227.717 154.047C226.691 154.527 225.641 154.988 224.596 155.446C223.553 155.903 222.514 156.358 221.521 156.824C219.541 157.753 217.701 158.743 216.32 159.92L216.314 159.925C213.58 162.329 211.623 165.88 209.678 169.475C207.775 172.991 205.872 176.564 203.256 179.385C199.084 177.255 197.135 173.662 195.379 169.798C193.596 165.874 191.997 161.606 188.337 158.739L188.336 158.738L188.094 158.555C186.859 157.644 185.278 156.842 183.58 156.078C181.793 155.274 179.751 154.461 177.886 153.641C175.984 152.805 174.178 151.926 172.688 150.921C171.245 149.948 170.137 148.88 169.515 147.66C169.582 147.082 169.651 146.647 169.774 146.234C169.906 145.796 170.103 145.364 170.451 144.812C172.35 142.037 175.711 140.409 179.355 138.854C182.942 137.323 186.816 135.861 189.407 133.373H189.408C192.351 130.536 194.412 126.781 196.364 123.01C198.271 119.327 200.073 115.635 202.496 112.601Z" stroke="white"/>
</svg>
