<svg width="44" height="55" viewBox="0 0 44 55" fill="none" xmlns="http://www.w3.org/2000/svg">
<path d="M37.965 34.4478C35.4367 34.4478 32.9906 34.0367 30.7089 33.2967C30.3514 33.1762 29.9672 33.1586 29.6001 33.2459C29.2331 33.3331 28.8979 33.5216 28.6328 33.79L25.4056 37.8394C19.5883 35.0644 14.1411 29.8228 11.2428 23.8L15.2511 20.3878C15.8061 19.8122 15.9706 19.0106 15.7444 18.2911C14.9839 16.0094 14.5933 13.5633 14.5933 11.035C14.5933 9.925 13.6683 9 12.5583 9H5.44611C4.33611 9 3 9.49333 3 11.035C3 30.1311 18.8894 46 37.965 46C39.4244 46 40 44.705 40 43.5744V36.4828C40 35.3728 39.075 34.4478 37.965 34.4478Z" fill="#FF6E4D"/>
</svg>
