<svg width="45" height="45" viewBox="0 0 45 45" fill="none" xmlns="http://www.w3.org/2000/svg">
<path fill-rule="evenodd" clip-rule="evenodd" d="M22.5 0C34.9264 0 45 10.0736 45 22.5C45 34.9264 34.9264 45 22.5 45C10.0736 45 0 34.9264 0 22.5C0 10.0736 10.0736 0 22.5 0ZM33.3482 27.3314L29.3592 25.0285C28.584 24.581 27.584 24.8484 27.1365 25.6239C26.7422 26.3071 26.1442 26.8612 25.3511 27.0236C24.5716 27.1833 23.8303 27.0171 23.194 26.5395C22.3082 25.8746 21.4633 25.1036 20.6806 24.3207C19.8978 23.538 19.1268 22.6932 18.4619 21.8073C17.9843 21.171 17.8176 20.4296 17.9772 19.6501C18.1397 18.8569 18.6942 18.2591 19.3774 17.8648C19.7556 17.6466 20.021 17.2976 20.1341 16.8761C20.2468 16.4556 20.1906 16.0192 19.9728 15.6421L17.6699 11.6531C17.2623 10.947 16.4226 10.6572 15.6643 10.9531L15.6154 10.9722C14.8504 11.2707 12.6495 12.0826 12.09 12.6422C10.6465 14.0859 10.6396 16.1259 11.1394 17.9914C12.0751 21.4834 14.8707 25.0978 17.387 27.6141C19.9031 30.1302 23.5176 32.926 27.0094 33.8616C27.6903 34.0441 28.3994 34.1618 29.1057 34.1616C30.3464 34.1612 31.4733 33.7967 32.3588 32.9112C32.929 32.3409 33.7291 30.1656 34.0276 29.3897L34.0462 29.3412C34.3381 28.5833 34.0552 27.7396 33.3482 27.3314ZM30.952 15.3238L30.9519 13.3824H23.3844V20.3468H30.9519L30.952 18.405L34.1601 19.7169V14.0125L30.952 15.3238Z" fill="#F6F4F1"/>
</svg>
