<svg width="46" height="46" viewBox="0 0 46 46" fill="none" xmlns="http://www.w3.org/2000/svg">
<path d="M40.8741 31.2491C40.8685 31.2579 40.8625 31.2664 40.856 31.2746L36.7487 35.7737C36.5358 36.0071 36.235 36.1409 35.919 36.1425C35.864 36.1421 35.8091 36.1377 35.7548 36.1294C35.3828 36.0714 35.064 35.8325 34.9037 35.4919C34.8815 35.4443 34.8511 35.3884 34.8257 35.3383L33.6058 36.5582C34.6598 37.1289 35.3177 38.2298 35.321 39.4284V39.4612V39.4777V43.5357C35.321 43.9894 34.9532 44.3572 34.4996 44.3572C34.0459 44.3572 33.6781 43.9894 33.6781 43.5357V42.2575C33.1808 42.5532 32.6137 42.7108 32.0352 42.7142C30.5333 42.72 29.22 41.7033 28.8494 40.2478C28.4788 38.7923 29.146 37.2713 30.4678 36.5582L29.248 35.3383C29.2225 35.3884 29.1929 35.4435 29.1707 35.4911C29.0101 35.8319 28.691 36.0709 28.3189 36.1294C28.2645 36.1377 28.2096 36.1421 28.1546 36.1425C27.8404 36.1419 27.5408 36.01 27.3282 35.7786L23.2209 31.2746C23.2144 31.2664 23.2084 31.2579 23.2028 31.2491C20.2858 31.5681 18.0751 34.0296 18.0703 36.964V46.0001H46V36.964C45.9956 34.0318 43.7886 31.5712 40.8741 31.2491Z" fill="white"/>
<path d="M22.4195 0H22.4146C20.0655 0.00190876 17.8204 0.968983 16.2052 2.67468C16.0509 2.8352 15.838 2.92621 15.6154 2.92687C15.3936 2.92772 15.1808 2.83884 15.0256 2.68043C13.4081 0.982331 11.1659 0.0205852 8.82076 0.0190333C6.47563 0.0174813 4.23214 0.976259 2.61245 2.67222C-0.867946 6.25893 -0.871219 11.9612 2.60506 15.5519L13.8944 27.1904C14.8445 28.1401 16.3846 28.1401 17.3347 27.1904L23.2057 21.142C23.1331 20.8983 23.0998 20.6445 23.1071 20.3903C23.1014 20.0465 23.0283 19.7071 22.8919 19.3914C22.8212 19.2074 22.7391 19.0407 22.6495 18.8575L22.6134 18.7819C21.9948 17.8284 22.0251 16.593 22.6898 15.671C22.9827 15.3351 23.382 15.1098 23.821 15.0328V12.3219C23.8249 8.60065 26.3286 5.34628 29.9244 4.38825C29.5614 3.76844 29.1244 3.19498 28.6232 2.68043C27.0116 0.972277 24.7679 0.00284768 22.4195 0ZM7.46318 17.019C7.13833 17.3357 6.61832 17.3291 6.30163 17.0043L5.98044 16.6757C5.66287 16.3499 5.66949 15.8284 5.99523 15.5108C6.32097 15.1933 6.84249 15.1999 7.16006 15.5256L7.48043 15.8542C7.63318 16.0107 7.71724 16.2216 7.71401 16.4402C7.71077 16.6589 7.62049 16.8672 7.46318 17.019ZM8.81284 3.30228C7.36951 3.30455 5.98948 3.89518 4.9914 4.93781C2.73564 7.24464 2.71927 10.9259 4.95444 13.2526C5.15987 13.4623 5.23783 13.7657 5.15895 14.0485C5.08007 14.3312 4.85634 14.5504 4.57202 14.6235C4.2877 14.6965 3.986 14.6124 3.78057 14.4027C0.925964 11.4387 0.939053 6.74404 3.81014 3.79598C5.11819 2.43381 6.92433 1.66272 8.81284 1.66017C9.26652 1.66017 9.6343 2.02796 9.6343 2.48164C9.6343 2.93532 9.26652 3.30228 8.81284 3.30228Z" fill="white"/>
<path d="M26.5623 29.6393C25.8785 29.7209 25.2504 30.0567 24.8027 30.5799L28.0352 34.1212C28.396 33.4642 28.8553 32.8664 29.3972 32.3485C28.1502 31.8264 27.1404 30.8614 26.5623 29.6393Z" fill="white"/>
<path d="M39.2757 30.5799C38.828 30.0567 38.1999 29.7209 37.5161 29.6393C36.9383 30.862 35.9285 31.8276 34.6813 32.3502C35.2231 32.8681 35.6824 33.4659 36.0432 34.1229L39.2757 30.5799Z" fill="white"/>
<path d="M36.1199 28.7018L35.8784 27.4918C35.8028 27.5329 35.7232 27.574 35.6542 27.6126C35.6066 27.6395 35.5638 27.6742 35.5276 27.7152C34.6926 28.8152 33.4169 29.4933 32.0381 29.5701C30.6532 29.4792 29.3748 28.7954 28.5304 27.6939C28.4896 27.6544 28.4437 27.6204 28.3941 27.5928C28.3341 27.5616 28.2635 27.5222 28.1977 27.4869L27.9562 28.7018C28.1649 29.2727 29.0923 31.213 32.0381 31.213C34.9838 31.213 35.9113 29.2686 36.1199 28.7018Z" fill="white"/>
<path d="M32.0413 41.0766C32.9487 41.0766 33.6842 40.3411 33.6842 39.4337C33.6842 38.5263 32.9487 37.7908 32.0413 37.7908C31.1339 37.7908 30.3984 38.5263 30.3984 39.4337C30.3984 40.3411 31.1339 41.0766 32.0413 41.0766Z" fill="white"/>
<path d="M32.0416 32.8552C31.2886 32.9162 30.6011 33.3071 30.1637 33.9231L32.0416 35.8009L33.9194 33.9231C33.482 33.3071 32.7946 32.9162 32.0416 32.8552Z" fill="white"/>
<path d="M39.6597 18.7655C39.7271 18.5865 39.8289 18.3729 39.9431 18.1396L39.9793 18.0648C40.3407 17.3715 40.2832 16.9213 40.1279 16.7382C40.0824 16.6862 40.0208 16.6509 39.953 16.6379C39.2884 17.5552 38.2178 18.0901 37.0852 18.0706C36.2287 18.0271 35.4006 17.7489 34.6915 17.2664C33.097 16.148 30.9728 16.148 29.3783 17.2664C28.6692 17.7489 27.8411 18.0271 26.9845 18.0706C25.851 18.0902 24.7794 17.5543 24.1152 16.6355C24.0479 16.6488 23.9868 16.6837 23.941 16.7349C23.7866 16.9181 23.7299 17.3699 24.0799 18.0443L24.1267 18.1396C24.2409 18.3729 24.3427 18.5865 24.4175 18.7836C24.6347 19.3018 24.7464 19.8581 24.7461 20.42C24.7316 20.5525 24.7648 20.6859 24.8397 20.7962C25.0116 20.9147 25.2202 20.9678 25.4279 20.9457C25.8816 20.9457 26.2493 21.3135 26.2493 21.7672C26.2513 22.6404 26.4217 23.505 26.7512 24.3137C27.4038 25.1134 28.2376 25.7459 29.1836 26.1587C29.4116 26.2855 29.6161 26.4505 29.7882 26.6466C30.3231 27.3713 31.1389 27.8366 32.0349 27.9281C32.9213 27.8384 33.7293 27.3806 34.2619 26.6664C34.4342 26.4634 34.6422 26.2936 34.8755 26.1653C35.8227 25.7388 36.6596 25.1009 37.3218 24.3005C37.6526 23.4968 37.8239 22.6363 37.8262 21.7672C37.8262 21.3135 38.194 20.9457 38.6477 20.9457C38.852 20.9669 39.0573 20.9148 39.2268 20.7986C39.3031 20.6937 39.3395 20.5649 39.3295 20.4356C39.3265 19.8624 39.4388 19.2945 39.6597 18.7655Z" fill="white"/>
<path d="M28.5686 15.841C30.6667 14.4379 33.4037 14.4379 35.5018 15.841C35.969 16.173 36.5151 16.3766 37.0855 16.4317C37.6712 16.4468 38.2298 16.185 38.5929 15.7252C38.4984 15.0675 38.1894 14.4594 37.714 13.9952C36.6354 12.8994 34.6754 12.3244 32.0352 12.3244C29.395 12.3244 27.435 12.8994 26.3564 13.9952C25.8809 14.4593 25.5719 15.0675 25.4775 15.7252C25.8408 16.1847 26.3992 16.4464 26.9848 16.4317C27.5553 16.3766 28.1014 16.173 28.5686 15.841Z" fill="white"/>
<path d="M32.0344 5.75332C28.4074 5.7592 25.4686 8.69801 25.4628 12.325V12.5969C26.8888 11.331 29.0903 10.6821 32.0344 10.6821C34.9786 10.6821 37.1801 11.331 38.6061 12.5969V12.325C38.6021 8.69726 35.6622 5.75739 32.0344 5.75332Z" fill="white"/>
</svg>
