<svg width="194" height="198" viewBox="0 0 195 199" fill="none" xmlns="http://www.w3.org/2000/svg">
<path d="M96.0171 121.474C98.1028 128.85 100.165 136.134 102.264 143.554C101.838 143.551 101.518 143.55 101.195 143.547C90.8448 143.484 80.496 143.413 70.1461 143.372C69.446 143.371 69.0527 143.153 68.6667 142.562C66.1918 138.79 63.6899 135.03 61.1468 131.303C60.6209 130.535 60.4154 129.807 60.5045 128.879C60.8558 125.298 61.1296 121.708 61.4716 118.129C61.5144 117.698 61.7185 117.221 61.988 116.882C71.3066 105.06 80.6411 93.2503 89.9757 81.4407C91.8464 79.0748 93.7304 76.7194 95.6091 74.3598C95.72 74.2188 95.8463 74.0855 96.0072 73.9062C97.9728 75.0622 99.9145 76.1995 101.85 77.34C104.27 78.7661 106.697 80.1841 109.098 81.6467C109.427 81.8485 109.749 82.2334 109.872 82.6009C114.11 95.1861 118.321 107.78 122.541 120.372C123.403 122.942 124.297 125.503 125.134 128.084C125.255 128.454 125.238 128.957 125.093 129.316C123.238 133.878 121.337 138.417 119.475 142.978C119.266 143.489 119.023 143.681 118.469 143.665C115.085 143.552 111.697 143.471 108.309 143.39C107.89 143.38 107.617 143.321 107.581 142.794C107.495 141.544 107.367 140.301 107.229 139.058C107.17 138.522 107.329 138.212 107.821 137.953C109.676 136.976 111.508 135.946 113.346 134.93C113.663 134.757 113.969 134.559 114.388 134.307C111.568 133.169 108.893 132.073 106.198 131.021C105.648 130.804 105.397 130.488 105.218 129.931C103.107 123.309 100.964 116.697 98.7924 109.96C98.4684 110.153 98.1833 110.295 97.9198 110.476C91.3864 115.004 84.8596 119.545 78.3117 124.054C77.7192 124.463 77.6165 124.799 77.8359 125.487C78.7581 128.362 79.6023 131.263 80.505 134.247C83.2199 133.849 85.8878 133.457 88.6873 133.048C88.1997 131.776 87.738 130.576 87.2647 129.342C86.2466 129.598 85.2977 129.836 84.2426 130.101C83.8988 128.964 83.5621 127.845 83.1913 126.609C87.4558 124.901 91.6705 123.213 96.0212 121.469L96.0171 121.474Z" fill="#FF6E4D"/>
<path d="M98.1641 71.5247C103.205 65.6008 108.159 59.7807 113.191 53.875C114.533 55.4026 115.84 56.8861 117.143 58.3702C120.039 61.6597 122.925 64.9552 125.838 68.2279C126.27 68.7123 126.358 69.0991 126.058 69.7071C125.413 71.012 124.853 72.3614 124.229 73.7606C125.235 74.3756 126.199 74.967 127.22 75.5897C126.667 76.5107 126.085 77.3578 125.641 78.274C125.441 78.6892 125.364 79.2871 125.489 79.7247C126.046 81.7036 126.718 83.6527 127.298 85.6237C127.467 86.1941 127.76 86.5147 128.301 86.7054C128.939 86.9295 129.532 87.3077 130.178 87.4698C131.193 87.7266 131.383 88.2285 131.211 89.2715C130.243 95.0692 125.14 100.729 119.534 102.093C119.478 102.106 119.416 102.082 119.242 102.066C118.673 100.417 118.073 98.7232 117.5 97.0235C115.67 91.5889 113.856 86.1498 112.003 80.7232C111.868 80.3256 111.53 79.9186 111.176 79.6934C107.153 77.1508 103.111 74.6446 99.0746 72.1256C98.794 71.949 98.5169 71.7622 98.1673 71.5316L98.1641 71.5247Z" fill="#FF6E4D"/>
<path d="M107.845 6.86884L107.806 7.53432C107.746 8.77159 107.303 9.74136 106.477 10.4377C105.651 11.1341 104.62 11.4538 103.377 11.3906C102.099 11.3256 101.053 10.8531 100.246 9.96746C99.4386 9.08182 99.0656 8.01742 99.1269 6.76836C99.1875 5.53108 99.6626 4.51568 100.546 3.72186C101.43 2.92804 102.493 2.56272 103.736 2.62589C104.702 2.67499 105.533 2.95348 106.223 3.46105C106.912 3.96862 107.377 4.60062 107.618 5.35706L106.37 5.63032C106.171 5.11225 105.843 4.69394 105.386 4.3754C104.93 4.05686 104.365 3.88052 103.688 3.84609C102.781 3.79998 102.023 4.06863 101.416 4.65204C100.808 5.23544 100.484 5.95725 100.441 6.82334C100.398 7.70711 100.655 8.47623 101.214 9.12481C101.773 9.77339 102.541 10.1255 103.513 10.1749C104.32 10.2159 104.985 10.0311 105.513 9.62088C106.041 9.21064 106.352 8.64172 106.453 7.92032L103.507 7.78241L103.562 6.65118L107.845 6.86884Z" fill="#FF6E4D"/>
<path d="M116.628 13.0678L115.175 9.59346L113.077 9.19689L112.514 12.2842L111.227 12.041L112.745 3.71924L116.698 4.46636C117.527 4.62302 118.139 5.01485 118.534 5.64186C118.93 6.26887 119.068 6.92531 118.942 7.61588C118.838 8.18459 118.576 8.66931 118.148 9.07473C117.72 9.48015 117.188 9.70369 116.551 9.74535L118.112 13.3482L116.628 13.0678ZM113.821 5.11727L113.275 8.04568L115.872 8.53646C116.341 8.62519 116.745 8.55132 117.08 8.32064C117.416 8.08997 117.624 7.77497 117.697 7.37455C117.77 6.97413 117.694 6.59965 117.469 6.25691C117.244 5.91417 116.905 5.70007 116.453 5.61462L113.821 5.11727Z" fill="#FF6E4D"/>
<path d="M130.459 9.60533L125.905 8.08311L125.166 10.3737L129.133 11.6995L128.785 12.7774L124.818 11.4516L124.04 13.8656L128.583 15.3841L128.215 16.5238L122.447 14.5958L125.043 6.54514L130.823 8.47689L130.459 9.60533Z" fill="#FF6E4D"/>
<path d="M138.458 21.2261L138.615 19.015L135.006 17.2363L133.4 18.7328L132.172 18.1277L138.811 11.9702L140.314 12.7109L139.686 21.8312L138.458 21.2261ZM135.908 16.3851L138.712 17.7674L139.033 13.4671L135.908 16.3851Z" fill="#FF6E4D"/>
<path d="M153.518 20.7418L152.871 21.7359L150.406 20.0748L146.441 26.1728L145.351 25.4378L149.315 19.3398L146.839 17.672L147.485 16.6779L153.518 20.7418Z" fill="#FF6E4D"/>
<path d="M162.052 29.4937L158.464 26.3017L156.897 28.1277L160.021 30.9079L159.283 31.7672L156.159 28.987L154.507 30.9115L158.085 34.0956L157.305 35.0042L152.761 30.9613L158.272 24.5433L162.824 28.5941L162.052 29.4937Z" fill="#FF6E4D"/>
<path d="M164.724 43.1619L165.734 39.5138L164.342 37.8944L161.998 39.9817L161.145 38.9886L167.461 33.3622L170.084 36.4132C170.633 37.053 170.869 37.7434 170.791 38.4847C170.712 39.2259 170.415 39.8302 169.891 40.2971C169.459 40.6816 168.956 40.9011 168.372 40.955C167.788 41.0088 167.235 40.8538 166.713 40.4901L165.708 44.3072L164.724 43.1619ZM167.438 35.1361L165.206 37.1086L166.929 39.1128C167.24 39.4751 167.6 39.6678 168.004 39.6948C168.409 39.7217 168.765 39.6021 169.069 39.3314C169.373 39.0606 169.545 38.7179 169.58 38.307C169.616 37.896 169.484 37.5161 169.184 37.1672L167.438 35.1361Z" fill="#FF6E4D"/>
<path d="M173.87 59.9333L175.279 58.2216L173.372 54.6792L171.197 54.9677L170.548 53.7627L179.523 52.5917L180.317 54.0668L174.518 61.1383L173.87 59.9333ZM174.6 54.5077L176.082 57.2606L178.836 53.9408L174.6 54.5077Z" fill="#FF6E4D"/>
<path d="M185.871 66.7422L186.339 67.9781L178.463 71.0659L178.073 70.0342L182.116 63.4184L176.416 65.6535L175.948 64.4176L183.823 61.3298L184.214 62.3615L180.165 68.9795L185.871 66.7422Z" fill="#FF6E4D"/>
<path d="M180.44 78.1218L188.66 76.1275L188.964 77.4255L180.744 79.4199L180.44 78.1218Z" fill="#FF6E4D"/>
<path d="M191.276 92.7034L191.399 93.9538L182.984 94.8156L182.855 93.5065L189.011 92.8761L184.682 90.402L188.441 87.1173L182.286 87.7478L182.156 86.4328L190.571 85.571L190.694 86.8214L186.755 90.2016L191.276 92.7034Z" fill="#FF6E4D"/>
<path d="M182.844 105.271L184.922 104.533L185.054 100.512L183.029 99.6348L183.074 98.267L191.418 101.904L191.363 103.578L182.799 106.639L182.844 105.271ZM186.2 101L186.098 104.125L190.146 102.704L186.2 101Z" fill="#FF6E4D"/>
<path d="M183.168 113.104L182.442 117.486L181.251 117.281L182.193 111.596L190.53 113.027L190.314 114.331L183.168 113.104Z" fill="#FF6E4D"/>
<path d="M178.847 125.761L178.852 125.725C179.127 124.822 179.599 124.124 180.263 123.623C180.928 123.121 181.641 122.864 182.398 122.849L182.392 124.146C181.845 124.178 181.344 124.366 180.893 124.712C180.442 125.058 180.125 125.534 179.939 126.143C179.776 126.679 179.771 127.16 179.92 127.584C180.068 128.008 180.307 128.276 180.639 128.38C180.909 128.466 181.163 128.441 181.409 128.302C181.655 128.163 181.918 127.887 182.205 127.471L183.471 125.644C184.217 124.549 185.059 124.154 185.999 124.45C186.606 124.642 187.048 125.072 187.32 125.74C187.592 126.407 187.608 127.142 187.364 127.943C187.113 128.767 186.705 129.418 186.14 129.895C185.575 130.372 184.968 130.645 184.319 130.712L184.326 129.433C184.761 129.361 185.153 129.169 185.502 128.852C185.851 128.536 186.101 128.12 186.258 127.606C186.394 127.161 186.399 126.76 186.273 126.405C186.146 126.049 185.938 125.823 185.646 125.73C185.415 125.658 185.198 125.682 184.996 125.798C184.794 125.913 184.584 126.138 184.367 126.465L183.132 128.252C182.7 128.883 182.268 129.328 181.839 129.582C181.41 129.836 180.911 129.877 180.337 129.695C179.645 129.477 179.155 129 178.861 128.264C178.568 127.528 178.563 126.692 178.847 125.761Z" fill="#FF6E4D"/>
<path d="M170.702 153.279L170.146 152.911C169.107 152.236 168.486 151.361 168.288 150.289C168.089 149.218 168.317 148.156 168.978 147.101C169.658 146.017 170.577 145.341 171.735 145.081C172.894 144.821 173.995 145.03 175.043 145.711C176.082 146.386 176.727 147.312 176.981 148.483C177.235 149.654 177.032 150.767 176.371 151.821C175.857 152.641 175.211 153.227 174.436 153.574C173.661 153.922 172.888 154.011 172.118 153.841L172.491 152.613C173.035 152.699 173.556 152.623 174.054 152.384C174.552 152.145 174.98 151.741 175.341 151.166C175.823 150.396 175.961 149.599 175.753 148.775C175.546 147.951 175.082 147.305 174.354 146.832C173.613 146.35 172.823 146.188 171.99 146.351C171.157 146.513 170.478 147.007 169.961 147.832C169.532 148.516 169.367 149.19 169.464 149.858C169.56 150.525 169.899 151.083 170.473 151.534L172.03 149.029L172.98 149.646L170.702 153.279Z" fill="#FF6E4D"/>
<path d="M161.018 158.005L164.712 158.476L166.077 156.834L163.698 154.787L164.535 153.779L170.946 159.297L168.376 162.392C167.837 163.041 167.202 163.381 166.47 163.413C165.738 163.445 165.107 163.236 164.575 162.778C164.137 162.401 163.848 161.927 163.708 161.347C163.568 160.768 163.636 160.188 163.911 159.608L160.053 159.166L161.018 158.005ZM169.22 159.539L166.97 157.587L165.281 159.62C164.976 159.987 164.843 160.378 164.877 160.789C164.911 161.2 165.081 161.541 165.39 161.806C165.698 162.072 166.057 162.194 166.461 162.168C166.866 162.143 167.215 161.953 167.509 161.599L169.22 159.539Z" fill="#FF6E4D"/>
<path d="M157.172 172.03L160.704 168.778L159.105 166.978L156.029 169.811L155.276 168.965L158.353 166.132L156.668 164.235L153.145 167.48L152.349 166.585L156.824 162.465L162.442 168.789L157.959 172.916L157.172 172.03Z" fill="#FF6E4D"/>
<path d="M143.294 173.358L145.104 174.597L148.402 172.293L147.917 170.128L149.038 169.344L151.021 178.277L149.648 179.236L142.172 174.142L143.294 173.358ZM148.684 173.513L146.121 175.304L149.634 177.728L148.684 173.513Z" fill="#FF6E4D"/>
<path d="M136.224 186.939L135.697 185.877L138.341 184.517L135.107 178.003L136.277 177.401L139.511 183.916L142.165 182.55L142.692 183.612L136.224 186.939Z" fill="#FF6E4D"/>
<path d="M124.506 190.187L129.034 188.587L128.257 186.309L124.313 187.703L123.948 186.631L127.891 185.237L127.072 182.836L122.556 184.433L122.17 183.299L127.904 181.272L130.634 189.279L124.889 191.309L124.506 190.187Z" fill="#FF6E4D"/>
<path d="M111.516 185.867L114.141 188.535L116.233 188.102L115.618 185.025L116.9 184.759L118.557 193.054L114.617 193.87C113.791 194.041 113.079 193.911 112.482 193.48C111.885 193.05 111.515 192.494 111.378 191.805C111.265 191.238 111.329 190.689 111.577 190.15C111.824 189.611 112.235 189.2 112.811 188.919L110.037 186.173L111.516 185.867ZM117.044 192.169L116.473 189.245L113.885 189.78C113.417 189.877 113.07 190.1 112.844 190.442C112.617 190.784 112.541 191.155 112.621 191.554C112.701 191.953 112.909 192.272 113.244 192.503C113.579 192.735 113.971 192.805 114.422 192.711L117.044 192.169Z" fill="#FF6E4D"/>
<path d="M88.2453 186.674L88.9169 188.777L92.9306 189.05L93.8716 187.057L95.237 187.15L91.3391 195.363L89.6677 195.249L86.8799 186.581L88.2453 186.674ZM92.4071 190.18L89.2879 189.967L90.5792 194.064L92.4071 190.18Z" fill="#FF6E4D"/>
<path d="M76.1532 193.172L74.8592 192.905L76.5154 184.609L77.5956 184.833L80.9833 191.787L82.1822 185.782L83.4761 186.05L81.8199 194.345L80.7397 194.122L77.3532 187.162L76.1532 193.172Z" fill="#FF6E4D"/>
<path d="M69.7089 182.523L66.9781 190.529L65.7212 190.084L68.4519 182.078L69.7089 182.523Z" fill="#FF6E4D"/>
<path d="M51.7486 183.809L50.6313 183.235L54.3923 175.658L55.562 176.26L52.8108 181.802L57.1986 179.489L57.9566 184.449L60.7078 178.907L61.8828 179.511L58.1219 187.088L57.0046 186.513L56.2623 181.349L51.7486 183.809Z" fill="#FF6E4D"/>
<path d="M45.8361 169.893L45.3508 172.058L48.6484 174.363L50.4585 173.124L51.5803 173.908L44.1047 179.002L42.7315 178.042L44.7143 169.109L45.8361 169.893ZM47.6313 175.07L45.0686 173.279L44.1091 177.487L47.6313 175.07Z" fill="#FF6E4D"/>
<path d="M39.2617 165.945L35.994 162.936L36.7972 162.032L41.0369 165.936L35.4187 172.259L34.4466 171.364L39.2617 165.945Z" fill="#FF6E4D"/>
<path d="M31.1143 155.396L31.1414 155.42C31.7444 156.146 32.0729 156.929 32.1352 157.77C32.1975 158.611 32.031 159.362 31.64 160.017L30.5669 159.307C30.8315 158.822 30.9424 158.291 30.895 157.717C30.8477 157.143 30.6224 156.613 30.2154 156.123C29.8573 155.692 29.4605 155.427 29.0295 155.323C28.5984 155.219 28.2491 155.279 27.9853 155.506C27.7707 155.69 27.6559 155.922 27.6403 156.207C27.6246 156.493 27.7136 156.868 27.9064 157.34L28.7489 159.416C29.2597 160.65 29.1398 161.586 28.3932 162.228C27.9103 162.644 27.3174 162.788 26.6189 162.658C25.9204 162.528 25.3013 162.142 24.7661 161.498C24.2159 160.836 23.8931 160.133 23.7976 159.39C23.7021 158.647 23.7995 157.98 24.0897 157.388L25.147 158.089C24.9756 158.501 24.9264 158.94 25.0031 159.411C25.0799 159.882 25.2919 160.322 25.6349 160.735C25.9326 161.093 26.2625 161.315 26.6246 161.4C26.9867 161.486 27.2859 161.43 27.5184 161.23C27.7017 161.073 27.7972 160.874 27.8086 160.638C27.82 160.403 27.7457 160.101 27.5895 159.737L26.7636 157.709C26.4707 156.996 26.331 156.385 26.3484 155.88C26.3659 155.374 26.5985 154.925 27.0545 154.533C27.6044 154.059 28.2609 153.899 29.0284 154.048C29.7959 154.196 30.4924 154.647 31.1143 155.396Z" fill="#FF6E4D"/>
<path d="M12.7863 133.582L13.3914 133.302C14.5115 132.773 15.5715 132.709 16.566 133.114C17.5606 133.518 18.3174 134.283 18.8337 135.415C19.3646 136.58 19.4288 137.73 19.0184 138.864C18.608 139.997 17.8401 140.829 16.7094 141.363C15.5893 141.893 14.4744 141.95 13.3672 141.54C12.2599 141.13 11.4481 140.359 10.9319 139.226C10.5306 138.346 10.3941 137.478 10.5248 136.627C10.6554 135.776 10.9993 135.065 11.5563 134.495L12.3717 135.474C12.0059 135.894 11.7876 136.382 11.7167 136.938C11.6457 137.493 11.7497 138.077 12.0311 138.694C12.4079 139.521 12.9935 140.066 13.788 140.33C14.5824 140.594 15.369 140.542 16.1531 140.171C16.9531 139.794 17.5135 139.203 17.8289 138.401C18.1442 137.6 18.1015 136.753 17.6978 135.867C17.3626 135.132 16.8937 134.629 16.2886 134.354C15.6835 134.079 15.038 134.07 14.3551 134.321L15.5891 137L14.565 137.484L12.7863 133.582Z" fill="#FF6E4D"/>
<path d="M14.1532 122.739L11.7534 125.65L12.3759 127.692L15.3684 126.747L15.7501 128L7.68375 130.547L6.51114 126.699C6.26526 125.892 6.32801 125.167 6.69937 124.524C7.07072 123.881 7.58742 123.452 8.2568 123.24C8.80806 123.066 9.35855 123.072 9.91562 123.261C10.4727 123.45 10.9174 123.817 11.2498 124.361L13.7131 121.295L14.1532 122.739ZM8.42144 128.941L11.2655 128.055L10.4952 125.527C10.356 125.07 10.1036 124.748 9.74371 124.559C9.38383 124.369 9.00897 124.333 8.62084 124.455C8.23271 124.578 7.93648 124.82 7.73775 125.18C7.53903 125.539 7.50673 125.939 7.64084 126.379L8.42144 128.941Z" fill="#FF6E4D"/>
<path d="M4.57805 111.94L5.36294 116.677L7.73496 116.269L7.05131 112.143L8.16756 111.952L8.85121 116.078L11.3511 115.648L10.5682 110.923L11.7484 110.72L12.7425 116.72L4.40554 118.152L3.40948 112.14L4.57805 111.94Z" fill="#FF6E4D"/>
<path d="M11.034 99.3282L9.00887 100.206L9.14091 104.227L11.2191 104.964L11.264 106.332L2.69991 103.271L2.64493 101.597L10.989 97.9604L11.034 99.3282ZM7.96479 103.818L7.86218 100.693L3.91617 102.386L7.96479 103.818Z" fill="#FF6E4D"/>
<path d="M3.46418 85.9873L4.64368 86.1081L4.3513 89.0667L11.5868 89.8078L11.4574 91.1168L4.22194 90.3758L3.92841 93.3461L2.7489 93.2253L3.46418 85.9873Z" fill="#FF6E4D"/>
<path d="M7.09342 74.1867L5.99897 78.862L8.33787 79.4294L9.29114 75.3572L10.3918 75.6242L9.43852 79.6964L11.9035 80.2945L12.9953 75.6307L14.159 75.913L12.7728 81.8346L4.55227 79.8403L5.94118 73.9071L7.09342 74.1867Z" fill="#FF6E4D"/>
<path d="M17.7546 65.3975L14.1011 66.1698L13.3455 68.1671L16.2671 69.3126L15.8037 70.5374L7.92846 67.4496L9.352 63.6869C9.65048 62.8979 10.1411 62.368 10.8237 62.0971C11.5064 61.8263 12.1728 61.8151 12.8263 62.0714C13.3645 62.2824 13.7928 62.634 14.1144 63.134C14.4361 63.6339 14.5615 64.2026 14.4906 64.84L18.2889 63.9851L17.7546 65.3975ZM9.48472 66.6533L12.2539 67.7517L13.189 65.28C13.3581 64.8331 13.3565 64.4207 13.1896 64.0448C13.0228 63.669 12.751 63.404 12.3721 63.2554C11.9931 63.1068 11.6135 63.1101 11.2387 63.2672C10.864 63.4244 10.5952 63.7181 10.4323 64.1485L9.48472 66.6533Z" fill="#FF6E4D"/>
<path d="M29.5418 44.9994L27.4258 44.4223L25.0671 47.6813L26.2355 49.5678L25.4331 50.6764L20.6306 42.8864L21.6129 41.5292L30.3442 43.8908L29.5418 44.9994ZM24.4003 46.6208L26.2334 44.0882L22.1209 42.9499L24.4003 46.6208Z" fill="#FF6E4D"/>
<path d="M30.5883 31.0304L31.4983 30.0724L37.5261 36.0071L36.7663 36.8069L29.1773 35.9067L33.5404 40.2026L32.6304 41.1606L26.6026 35.2259L27.3624 34.4261L34.9556 35.3304L30.5883 31.0304Z" fill="#FF6E4D"/>
<path d="M42.9386 31.2138L37.7539 24.53L38.7929 23.6947L43.9776 30.3785L42.9386 31.2138Z" fill="#FF6E4D"/>
<path d="M51.5051 15.0872L52.5811 14.4384L56.835 21.7499L55.7085 22.4292L52.5967 17.0807L52.1552 22.0923L47.6411 20.0688L50.7529 25.4173L49.6213 26.0996L45.3674 18.7881L46.4434 18.1393L51.1181 20.2864L51.5051 15.0872Z" fill="#FF6E4D"/>
<path d="M66.2033 17.4567L64.672 15.882L60.9785 17.4764L61.0258 19.6917L59.7693 20.2341L59.593 11.0975L61.1311 10.4335L67.4598 16.9143L66.2033 17.4567ZM60.9432 16.226L63.8136 14.9869L60.846 11.9122L60.9432 16.226Z" fill="#FF6E4D"/>
<path d="M73.0121 13.9042L77.2907 12.711L77.6049 13.8788L72.0535 15.4268L69.8556 7.2584L71.1284 6.90346L73.0121 13.9042Z" fill="#FF6E4D"/>
<path d="M86.1559 12.5255L86.1216 12.5361C85.1865 12.6642 84.3534 12.5282 83.6171 12.1348C82.8809 11.7414 82.3455 11.2015 82.0116 10.5208L83.1903 9.98437C83.4503 10.4667 83.8332 10.843 84.3382 11.1073C84.8432 11.3716 85.4083 11.4609 86.0395 11.3745C86.5947 11.2985 87.0328 11.1015 87.3546 10.7896C87.6763 10.4776 87.8173 10.1487 87.7717 9.80365C87.7347 9.52295 87.6044 9.30263 87.3743 9.13765C87.1443 8.97267 86.7829 8.84948 86.2836 8.76304L84.0908 8.37857C82.7825 8.15878 82.0668 7.56018 81.9377 6.58355C81.8543 5.95196 82.0571 5.37048 82.547 4.84497C83.0369 4.31945 83.6964 3.99696 84.5263 3.88334C85.3796 3.76651 86.1422 3.86453 86.8143 4.17738C87.4863 4.49023 87.9903 4.92731 88.3263 5.4886L87.1644 6.01681C86.9139 5.6522 86.5741 5.37721 86.1392 5.19265C85.7043 5.00809 85.2213 4.95514 84.6894 5.02796C84.2277 5.09117 83.8625 5.25429 83.5938 5.51733C83.3251 5.78036 83.2079 6.06433 83.2481 6.36843C83.2798 6.6082 83.3937 6.79503 83.584 6.92972C83.7744 7.06442 84.0668 7.16131 84.4556 7.22122L86.5993 7.59455C87.3541 7.7234 87.9406 7.92889 88.3528 8.21182C88.765 8.49475 89.0131 8.93115 89.0919 9.52765C89.1869 10.247 88.9626 10.8909 88.4197 11.4654C87.8767 12.0398 87.1202 12.3935 86.1559 12.5255Z" fill="#FF6E4D"/>
</svg>
