<svg width="226" height="137" viewBox="0 0 226 137" fill="none" xmlns="http://www.w3.org/2000/svg">
<mask id="path-1-inside-1_1_607" fill="white">
<path d="M113.498 0C51.366 0 0.998062 30.6685 0.998062 68.5C0.998062 82.1809 7.58655 94.9233 18.9346 105.619L1.52588e-05 124.75H49.2793C67.489 132.472 89.6251 137 113.498 137C175.63 137 225.998 106.332 225.998 68.5C225.998 30.6685 175.63 0 113.498 0Z"/>
</mask>
<path d="M113.498 0C51.366 0 0.998062 30.6685 0.998062 68.5C0.998062 82.1809 7.58655 94.9233 18.9346 105.619L1.52588e-05 124.75H49.2793C67.489 132.472 89.6251 137 113.498 137C175.63 137 225.998 106.332 225.998 68.5C225.998 30.6685 175.63 0 113.498 0Z" fill="#FFF07C"/>
<path d="M18.9346 105.619L20.9922 103.436L23.2294 105.545L21.0668 107.729L18.9346 105.619ZM1.52588e-05 124.75V127.75H-7.19014L-2.13222 122.64L1.52588e-05 124.75ZM49.2793 124.75V121.75H49.8891L50.4505 121.988L49.2793 124.75ZM113.498 0V3C82.8901 3 55.3241 10.5602 35.5088 22.6256C15.6403 34.7232 3.99806 51.0302 3.99806 68.5H0.998062H-2.00194C-2.00194 48.1383 11.5398 30.1953 32.3884 17.5008C53.29 4.77404 81.974 -3 113.498 -3V0ZM0.998062 68.5H3.99806C3.99806 81.1508 10.0793 93.1503 20.9922 103.436L18.9346 105.619L16.8769 107.802C5.09381 96.6964 -2.00194 83.2111 -2.00194 68.5H0.998062ZM18.9346 105.619L21.0668 107.729L2.13225 126.86L1.52588e-05 124.75L-2.13222 122.64L16.8024 103.509L18.9346 105.619ZM1.52588e-05 124.75V121.75H49.2793V124.75V127.75H1.52588e-05V124.75ZM49.2793 124.75L50.4505 121.988C68.2579 129.539 89.9915 134 113.498 134V137V140C89.2587 140 66.72 135.405 48.1081 127.512L49.2793 124.75ZM113.498 137V134C144.106 134 171.672 126.44 191.487 114.374C211.356 102.277 222.998 85.9698 222.998 68.5H225.998H228.998C228.998 88.8617 215.456 106.805 194.608 119.499C173.706 132.226 145.022 140 113.498 140V137ZM225.998 68.5H222.998C222.998 51.0302 211.356 34.7232 191.487 22.6256C171.672 10.5602 144.106 3 113.498 3V0V-3C145.022 -3 173.706 4.77404 194.608 17.5008C215.456 30.1953 228.998 48.1383 228.998 68.5H225.998Z" fill="#252627" mask="url(#path-1-inside-1_1_607)"/>
</svg>
