<svg width="28" height="28" viewBox="0 0 28 28" fill="none" xmlns="http://www.w3.org/2000/svg">
<path d="M6.5 27.25C5.8125 27.25 5.22417 27.0054 4.735 26.5162C4.24583 26.0271 4.00083 25.4383 4 24.75V12.25C4 11.5625 4.245 10.9742 4.735 10.485C5.225 9.99583 5.81333 9.75083 6.5 9.75H7.75V7.25C7.75 5.52083 8.35958 4.04708 9.57875 2.82875C10.7979 1.61042 12.2717 1.00083 14 1C15.7283 0.999168 17.2025 1.60875 18.4225 2.82875C19.6425 4.04875 20.2517 5.5225 20.25 7.25V9.75H21.5C22.1875 9.75 22.7762 9.995 23.2662 10.485C23.7562 10.975 24.0008 11.5633 24 12.25V24.75C24 25.4375 23.7554 26.0262 23.2662 26.5162C22.7771 27.0062 22.1883 27.2508 21.5 27.25H6.5ZM14 21C14.6875 21 15.2762 20.7554 15.7662 20.2662C16.2562 19.7771 16.5008 19.1883 16.5 18.5C16.4992 17.8117 16.2546 17.2233 15.7662 16.735C15.2779 16.2467 14.6892 16.0017 14 16C13.3108 15.9983 12.7225 16.2433 12.235 16.735C11.7475 17.2267 11.5025 17.815 11.5 18.5C11.4975 19.185 11.7425 19.7738 12.235 20.2662C12.7275 20.7587 13.3158 21.0033 14 21ZM10.25 9.75H17.75V7.25C17.75 6.20833 17.3854 5.32292 16.6562 4.59375C15.9271 3.86458 15.0417 3.5 14 3.5C12.9583 3.5 12.0729 3.86458 11.3437 4.59375C10.6146 5.32292 10.25 6.20833 10.25 7.25V9.75Z" fill="white"/>
</svg>
