<svg width="40" height="40" viewBox="0 0 40 40" fill="none" xmlns="http://www.w3.org/2000/svg">
<g clip-path="url(#clip0_1_385)">
<path d="M32 0H8C3.58172 0 0 3.58172 0 8V32C0 36.4183 3.58172 40 8 40H32C36.4183 40 40 36.4183 40 32V8C40 3.58172 36.4183 0 32 0Z" fill="#FF6E4D"/>
<path d="M16.6712 20.0519C16.6712 18.2094 18.164 16.7153 20.006 16.7153C21.848 16.7153 23.3416 18.2094 23.3416 20.0519C23.3416 21.8944 21.848 23.3884 20.006 23.3884C18.164 23.3884 16.6712 21.8944 16.6712 20.0519ZM14.868 20.0519C14.868 22.8904 17.1683 25.1913 20.006 25.1913C22.8437 25.1913 25.144 22.8904 25.144 20.0519C25.144 17.2133 22.8437 14.9124 20.006 14.9124C17.1683 14.9124 14.868 17.2133 14.868 20.0519ZM24.1466 14.7086C24.1465 14.9462 24.2169 15.1784 24.3487 15.376C24.4806 15.5736 24.6681 15.7276 24.8874 15.8186C25.1068 15.9096 25.3482 15.9335 25.5811 15.8872C25.8141 15.841 26.0281 15.7267 26.1961 15.5587C26.364 15.3908 26.4785 15.1769 26.5249 14.9439C26.5713 14.7109 26.5477 14.4694 26.4569 14.2499C26.3661 14.0304 26.2122 13.8428 26.0148 13.7107C25.8174 13.5787 25.5853 13.5082 25.3478 13.5081C25.0294 13.5082 24.7238 13.6347 24.4987 13.8598C24.2735 14.0849 24.1469 14.3902 24.1466 14.7086ZM15.9636 28.1989C14.988 28.1544 14.4578 27.9919 14.1054 27.8546C13.6383 27.6726 13.3049 27.456 12.9545 27.1059C12.604 26.7558 12.3871 26.4227 12.206 25.9554C12.0687 25.6031 11.9062 25.0726 11.8618 24.0967C11.8133 23.0417 11.8036 22.7248 11.8036 20.0519C11.8036 17.3791 11.8141 17.0631 11.8618 16.0072C11.9063 15.0313 12.07 14.5018 12.206 14.1485C12.3879 13.6812 12.6045 13.3478 12.9545 12.9972C13.3045 12.6467 13.6375 12.4297 14.1054 12.2485C14.4576 12.1111 14.988 11.9486 15.9636 11.9042C17.0183 11.8557 17.3351 11.846 20.006 11.846C22.6769 11.846 22.994 11.8565 24.0496 11.9042C25.0252 11.9487 25.5545 12.1124 25.9078 12.2485C26.3749 12.4297 26.7083 12.6471 27.0587 12.9972C27.4092 13.3473 27.6253 13.6812 27.8072 14.1485C27.9445 14.5008 28.107 15.0313 28.1514 16.0072C28.1999 17.0631 28.2096 17.3791 28.2096 20.0519C28.2096 22.7248 28.1999 23.0408 28.1514 24.0967C28.1069 25.0726 27.9436 25.603 27.8072 25.9554C27.6253 26.4227 27.4087 26.7561 27.0587 27.1059C26.7087 27.4556 26.3749 27.6726 25.9078 27.8546C25.5556 27.992 25.0252 28.1545 24.0496 28.1989C22.9949 28.2474 22.6781 28.2571 20.006 28.2571C17.3339 28.2571 17.018 28.2474 15.9636 28.1989ZM15.8807 10.1036C14.8155 10.1521 14.0877 10.3211 13.452 10.5685C12.7937 10.824 12.2364 11.1668 11.6795 11.723C11.1226 12.2791 10.7808 12.8375 10.5254 13.496C10.278 14.1322 10.1091 14.8599 10.0606 15.9254C10.0113 16.9926 10 17.3338 10 20.0519C10 22.77 10.0113 23.1111 10.0606 24.1783C10.1091 25.2439 10.278 25.9715 10.5254 26.6078C10.7808 27.2659 11.1227 27.8249 11.6795 28.3808C12.2363 28.9367 12.7937 29.279 13.452 29.5353C14.0889 29.7827 14.8155 29.9516 15.8807 30.0001C16.9482 30.0487 17.2887 30.0608 20.006 30.0608C22.7233 30.0608 23.0644 30.0495 24.1313 30.0001C25.1966 29.9516 25.9239 29.7827 26.56 29.5353C27.2179 29.279 27.7756 28.937 28.3325 28.3808C28.8894 27.8246 29.2305 27.2659 29.4866 26.6078C29.734 25.9715 29.9037 25.2438 29.9514 24.1783C29.9999 23.1103 30.0112 22.77 30.0112 20.0519C30.0112 17.3338 29.9999 16.9926 29.9514 15.9254C29.9029 14.8598 29.734 14.1318 29.4866 13.496C29.2305 12.8379 28.8885 12.28 28.3325 11.723C27.7765 11.1659 27.2179 10.824 26.5608 10.5685C25.9239 10.3211 25.1965 10.1513 24.1321 10.1036C23.0652 10.0551 22.7241 10.043 20.0068 10.043C17.2895 10.043 16.9482 10.0543 15.8807 10.1036Z" fill="white"/>
</g>
<defs>
<clipPath id="clip0_1_385">
<rect width="40" height="40" fill="white"/>
</clipPath>
</defs>
</svg>
