<svg width="41" height="41" viewBox="0 0 41 41" fill="none" xmlns="http://www.w3.org/2000/svg">
<path d="M39.8743 16.039L36.8851 15.4412C36.5562 14.3511 36.1203 13.2985 35.5834 12.2976L37.2741 9.76155C37.5917 9.28509 37.529 8.65071 37.124 8.24591L32.5941 3.71596C32.1893 3.31108 31.5549 3.2483 31.0785 3.56581L28.5423 5.2565C27.5414 4.71966 26.4889 4.28387 25.3987 3.95491L24.8009 0.965585C24.6887 0.404155 24.1957 0 23.6231 0H17.2168C16.6443 0 16.1512 0.404155 16.039 0.965585L15.4412 3.95491C14.351 4.28387 13.2985 4.71974 12.2976 5.2565L9.76139 3.56581C9.28509 3.2483 8.65063 3.31108 8.24575 3.71596L3.71588 8.24591C3.31092 8.65079 3.24814 9.28517 3.56581 9.76155L5.2565 12.2976C4.71958 13.2985 4.28379 14.3511 3.95483 15.4412L0.965585 16.039C0.404155 16.1512 0 16.6443 0 17.2169V23.6231C0 24.1957 0.404155 24.6887 0.965665 24.8009L3.95491 25.3988C4.28379 26.4888 4.71966 27.5414 5.25658 28.5423L3.56589 31.0784C3.24822 31.5548 3.31108 32.1892 3.71596 32.5941L8.24583 37.1239C8.65079 37.5289 9.28509 37.5917 9.76147 37.2741L12.2457 35.6181V28.0775C10.3645 26.0751 9.20901 23.3849 9.20901 20.42C9.20901 14.2283 14.2283 9.20901 20.42 9.20901C26.6116 9.20901 31.631 14.2283 31.631 20.42C31.631 23.3849 30.4755 26.0751 28.5943 28.0775V35.6181L31.0785 37.2741C31.2817 37.4096 31.5137 37.4759 31.7443 37.4759C32.0543 37.4759 32.362 37.3562 32.5941 37.124L37.1239 32.5941C37.5288 32.1893 37.5917 31.5549 37.274 31.0785L35.5833 28.5424C36.1202 27.5414 36.556 26.4889 36.885 25.3989L39.8742 24.801C40.4358 24.6887 40.84 24.1957 40.84 23.6231V17.2169C40.84 16.6443 40.4358 16.1512 39.8743 16.039Z" fill="white"/>
<path d="M24.2273 13.8383C23.6228 13.4881 22.8558 13.8597 22.7559 14.5511L22.0236 19.6191H18.8205L18.0882 14.5511C17.9883 13.8597 17.2214 13.4881 16.6169 13.8383C14.2715 15.1969 12.8146 17.7188 12.8146 20.4199C12.8146 23.3469 14.4538 25.9653 17.0925 27.2532L17.2189 27.315V39.7989C17.2189 40.4622 17.7567 41 18.4201 41H22.424C23.0874 41 23.6252 40.4622 23.6252 39.7989V27.315L23.7516 27.2532C26.3903 25.9653 28.0295 23.3469 28.0295 20.4199C28.0295 17.7188 26.5726 15.1969 24.2273 13.8383Z" fill="white"/>
</svg>
