<svg width="40" height="40" viewBox="0 0 40 40" fill="none" xmlns="http://www.w3.org/2000/svg">
<g clip-path="url(#clip0_1_388)">
<path d="M32 0H8C3.58172 0 0 3.58172 0 8V32C0 36.4183 3.58172 40 8 40H32C36.4183 40 40 36.4183 40 32V8C40 3.58172 36.4183 0 32 0Z" fill="#FF6E4D"/>
<path d="M15.4014 28.1037V17.2985H11.8131V28.1037H15.4014ZM13.608 15.8235C14.8591 15.8235 15.6379 14.9938 15.6379 13.9569C15.6145 12.8964 14.8591 12.0898 13.6318 12.0898C12.4037 12.0898 11.6016 12.8964 11.6016 13.9568C11.6016 14.9937 12.3802 15.8234 13.5845 15.8234L13.608 15.8235ZM17.3876 28.1037H20.9756V22.0702C20.9756 21.7477 20.999 21.4244 21.0938 21.194C21.3531 20.5485 21.9435 19.8804 22.9349 19.8804C24.233 19.8804 24.7526 20.8711 24.7526 22.3238V28.1037H28.3405V21.9083C28.3405 18.5896 26.5705 17.0452 24.2098 17.0452C22.2743 17.0452 21.4242 18.1279 20.952 18.8654H20.9759V17.2989H17.3878C17.4346 18.3125 17.3876 28.1037 17.3876 28.1037Z" fill="white"/>
</g>
<defs>
<clipPath id="clip0_1_388">
<rect width="40" height="40" fill="white"/>
</clipPath>
</defs>
</svg>
