<svg width="256" height="152" viewBox="0 0 256 152" fill="none" xmlns="http://www.w3.org/2000/svg">
<path opacity="0.3" d="M84.6244 0.505823C87.8795 1.84588 89.6554 4.67998 91.1726 7.93436C91.5617 8.76895 91.9303 9.62465 92.3039 10.486C92.6765 11.3454 93.0533 12.2108 93.4537 13.0543C94.2538 14.7399 95.1585 16.3618 96.3446 17.7254L96.3465 17.7273C98.0937 19.7117 100.693 20.9715 103.315 22.0768C105.973 23.1971 108.645 24.1567 110.712 25.5401V25.5411L110.721 25.546C111.571 26.0865 112.106 26.5416 112.478 27.087C112.836 27.6121 113.065 28.2553 113.244 29.2123C112.769 30.5684 111.812 31.7036 110.532 32.704C109.219 33.7302 107.593 34.5974 105.862 35.4076C104.998 35.8121 104.114 36.2001 103.234 36.5859C102.356 36.9709 101.48 37.3541 100.644 37.7465C99.0812 38.4799 97.6222 39.2582 96.4877 40.1688L96.2652 40.3531L96.2603 40.357C93.9578 42.3817 92.3097 45.3724 90.6717 48.3992C89.0693 51.3603 87.4664 54.3689 85.2635 56.7443C81.7502 54.9507 80.1095 51.9245 78.631 48.6708C77.1294 45.3665 75.7823 41.7729 72.7003 39.3591L72.6993 39.3581C71.6327 38.5268 70.2197 37.804 68.6949 37.1182C67.19 36.4413 65.47 35.756 63.8994 35.0655C62.2981 34.3614 60.7769 33.6207 59.5224 32.7746C58.3073 31.955 57.3745 31.0563 56.8502 30.0288C56.9071 29.542 56.9648 29.1761 57.0688 28.829C57.1787 28.462 57.3444 28.1006 57.6344 27.6399C59.2322 25.2981 62.0649 23.9245 65.1374 22.613C68.1574 21.324 71.4194 20.0935 73.6012 17.9989L73.6021 17.9979C76.0804 15.609 77.8164 12.4471 79.4603 9.27146C81.0657 6.16996 82.5837 3.06146 84.6244 0.505823Z" stroke="white" stroke-width="0.838906"/>
<path opacity="0.3" d="M28.2075 63.6631C31.4626 65.0032 33.2385 67.8373 34.7557 71.0916C35.1448 71.9262 35.5134 72.7819 35.887 73.6433C36.2596 74.5027 36.6364 75.3681 37.0368 76.2116C37.8369 77.8972 38.7416 79.5191 39.9277 80.8827L39.9296 80.8846C41.6768 82.869 44.276 84.1288 46.8984 85.2341C49.5564 86.3544 52.2282 87.314 54.2956 88.6974V88.6984L54.3044 88.7033C55.1542 89.2438 55.6889 89.6989 56.0611 90.2443C56.4193 90.7694 56.648 91.4126 56.8267 92.3695C56.3518 93.7257 55.3949 94.8609 54.1152 95.8613C52.8025 96.8875 51.1759 97.7547 49.4452 98.5649C48.5812 98.9693 47.697 99.3574 46.817 99.7432C45.9388 100.128 45.0636 100.511 44.2272 100.904C42.6643 101.637 41.2053 102.415 40.0708 103.326L39.8483 103.51L39.8434 103.514C37.5409 105.539 35.8928 108.53 34.2548 111.556C32.6524 114.518 31.0495 117.526 28.8466 119.902C25.3333 118.108 23.6926 115.082 22.2141 111.828C20.7125 108.524 19.3654 104.93 16.2834 102.516L16.2824 102.515C15.2158 101.684 13.8028 100.961 12.278 100.275C10.7731 99.5986 9.05306 98.9133 7.48245 98.2228C5.88116 97.5187 4.36003 96.7779 3.10552 95.9319C1.89043 95.1123 0.957579 94.2136 0.433282 93.1861C0.490213 92.6993 0.547915 92.3334 0.651884 91.9862C0.761807 91.6192 0.927531 91.2579 1.2175 90.7972C2.81535 88.4554 5.64804 87.0818 8.72054 85.7703C11.7405 84.4813 15.0025 83.2507 17.1843 81.1561L17.1852 81.1552C19.6635 78.7663 21.3995 75.6044 23.0434 72.4287C24.6488 69.3272 26.1668 66.2187 28.2075 63.6631Z" stroke="white" stroke-width="0.838906"/>
<path opacity="0.3" d="M113.256 31.6629C116.511 33.003 118.287 35.8371 119.805 39.0915C120.194 39.9261 120.562 40.7818 120.936 41.6431C121.308 42.5026 121.685 43.368 122.086 44.2115C122.886 45.897 123.79 47.5189 124.976 48.8825L124.978 48.8845C126.726 50.8688 129.325 52.1287 131.947 53.2339C134.605 54.3542 137.277 55.3138 139.344 56.6973V56.6982L139.353 56.7031C140.203 57.2436 140.738 57.6987 141.11 58.2441C141.468 58.7692 141.697 59.4124 141.875 60.3694C141.401 61.7256 140.444 62.8607 139.164 63.8611C137.851 64.8873 136.225 65.7545 134.494 66.5647C133.63 66.9692 132.746 67.3573 131.866 67.743C130.988 68.128 130.112 68.5112 129.276 68.9037C127.713 69.637 126.254 70.4153 125.12 71.3259L124.897 71.5102L124.892 71.5141C122.59 73.5388 120.942 76.5295 119.304 79.5563C117.701 82.5174 116.098 85.526 113.895 87.9014C110.382 86.1078 108.741 83.0816 107.263 79.8279C105.761 76.5236 104.414 72.93 101.332 70.5162L101.331 70.5152C100.265 69.684 98.8516 68.9612 97.3268 68.2753C95.8219 67.5985 94.1019 66.9132 92.5313 66.2226C90.93 65.5186 89.4089 64.7778 88.1543 63.9317C86.9393 63.1121 86.0064 62.2134 85.4821 61.1859C85.539 60.6991 85.5967 60.3332 85.7007 59.9861C85.8106 59.6191 85.9764 59.2577 86.2663 58.797C87.8642 56.4553 90.6969 55.0816 93.7694 53.7702C96.7893 52.4811 100.051 51.2506 102.233 49.156L102.234 49.155C104.712 46.7662 106.448 43.6042 108.092 40.4286C109.698 37.3271 111.216 34.2186 113.256 31.6629Z" stroke="white" stroke-width="0.838906"/>
<path opacity="0.3" d="M56.4267 94.8222C59.6272 96.1623 61.3756 98.9933 62.8701 102.247C63.2535 103.081 63.6166 103.937 63.9846 104.798C64.3518 105.658 64.7234 106.523 65.1178 107.367C65.906 109.052 66.797 110.674 67.9655 112.038L67.9675 112.04C69.6895 114.025 72.2512 115.285 74.8353 116.39C77.4552 117.511 80.0873 118.47 82.1237 119.854L82.1315 119.858C82.9684 120.399 83.4951 120.853 83.8617 121.398C84.2149 121.924 84.4413 122.568 84.6175 123.526C84.1497 124.884 83.2063 126.02 81.9453 127.02C80.6524 128.046 79.0499 128.913 77.3448 129.723C76.4937 130.127 75.6229 130.516 74.7559 130.901C73.8906 131.286 73.0285 131.669 72.2043 132.062C70.5613 132.844 69.0346 133.678 67.8881 134.669H67.8871L67.8822 134.674C65.6135 136.699 63.9896 139.689 62.376 142.716C60.7981 145.675 59.2203 148.682 57.0521 151.057C53.5974 149.264 51.9817 146.24 50.5254 142.987C49.0462 139.683 47.7192 136.09 44.682 133.675L44.681 133.674C43.6294 132.843 42.2362 132.12 40.7334 131.434C39.2512 130.757 37.5561 130.071 36.0095 129.381C34.4319 128.677 32.9338 127.937 31.6982 127.091C30.5013 126.272 29.581 125.373 29.0642 124.345C29.1204 123.857 29.1781 123.49 29.2809 123.141C29.3903 122.771 29.555 122.405 29.8455 121.939C31.4209 119.605 34.2075 118.235 37.229 116.926C40.2041 115.638 43.4197 114.406 45.5701 112.31H45.5711C48.0132 109.921 49.7235 106.759 51.343 103.584C52.9238 100.484 54.4179 97.3769 56.4267 94.8222Z" stroke="white" stroke-width="0.838906"/>
<path opacity="0.3" d="M141.888 0.505823C145.143 1.84588 146.919 4.67998 148.436 7.93436C148.826 8.76895 149.194 9.62465 149.568 10.486C149.94 11.3454 150.317 12.2108 150.718 13.0543C151.518 14.7399 152.422 16.3618 153.608 17.7254L153.61 17.7273C155.358 19.7117 157.957 20.9715 160.579 22.0768C163.237 23.1971 165.909 24.1567 167.976 25.5401V25.5411L167.985 25.546C168.835 26.0865 169.37 26.5416 169.742 27.087C170.1 27.6121 170.329 28.2553 170.507 29.2123C170.033 30.5684 169.076 31.7036 167.796 32.704C166.483 33.7302 164.857 34.5974 163.126 35.4076C162.262 35.8121 161.378 36.2001 160.498 36.5859C159.62 36.9709 158.744 37.3541 157.908 37.7465C156.345 38.4799 154.886 39.2582 153.752 40.1688L153.529 40.3531L153.524 40.357C151.222 42.3817 149.574 45.3724 147.936 48.3992C146.333 51.3603 144.73 54.3689 142.527 56.7443C139.014 54.9507 137.373 51.9245 135.895 48.6708C134.393 45.3665 133.046 41.7729 129.964 39.3591L129.963 39.3581C128.897 38.5268 127.484 37.804 125.959 37.1182C124.454 36.4413 122.734 35.756 121.163 35.0655C119.562 34.3614 118.041 33.6207 116.786 32.7746C115.571 31.955 114.638 31.0563 114.114 30.0288C114.171 29.542 114.229 29.1761 114.333 28.829C114.443 28.462 114.608 28.1006 114.898 27.6399C116.496 25.2981 119.329 23.9245 122.401 22.613C125.421 21.324 128.683 20.0935 130.865 17.9989L130.866 17.9979C133.344 15.609 135.08 12.4471 136.724 9.27146C138.33 6.16996 139.848 3.06146 141.888 0.505823Z" stroke="white" stroke-width="0.838906"/>
<path opacity="0.3" d="M85.0586 63.6651C88.2591 65.0051 90.0075 67.8362 91.502 71.0897C91.8854 71.9244 92.2485 72.7799 92.6166 73.6413C92.9837 74.5008 93.3553 75.3662 93.7498 76.2097C94.5379 77.8949 95.4289 79.5171 96.5975 80.8807L96.5994 80.8827C98.3215 82.8676 100.883 84.1277 103.467 85.2331C106.087 86.3538 108.719 87.3134 110.756 88.6964L110.763 88.7013C111.6 89.2415 112.127 89.6961 112.494 90.2414C112.847 90.7668 113.073 91.4107 113.249 92.3686C112.782 93.7268 111.838 94.8627 110.577 95.8632C109.284 96.889 107.682 97.7557 105.977 98.5659C105.126 98.9703 104.255 99.3584 103.388 99.7442C102.523 100.129 101.66 100.512 100.836 100.905C99.1932 101.687 97.6665 102.521 96.52 103.512H96.519L96.5141 103.517C94.2454 105.542 92.6216 108.532 91.0079 111.558C89.43 114.518 87.8522 117.525 85.684 119.9C82.2293 118.107 80.6137 115.083 79.1574 111.83C77.6781 108.526 76.3511 104.933 73.3139 102.518L73.313 102.517C72.2614 101.686 70.8681 100.962 69.3654 100.276C67.8831 99.5998 66.188 98.9139 64.6414 98.2238C63.0638 97.5198 61.5657 96.7796 60.3302 95.9338C59.1332 95.1145 58.2129 94.2163 57.6962 93.1881C57.7524 92.6998 57.81 92.3325 57.9128 91.9843C58.0222 91.6136 58.187 91.2481 58.4774 90.7815C60.0529 88.448 62.8394 87.0783 65.8609 85.7693C68.836 84.4805 72.0516 83.2489 74.2021 81.1532H74.203C76.6451 78.7642 78.3554 75.6022 79.9749 72.4268C81.5557 69.3272 83.0499 66.2198 85.0586 63.6651Z" stroke="white" stroke-width="0.838906"/>
<path opacity="0.3" d="M170.107 31.6649C173.308 33.005 175.056 35.836 176.551 39.0895C176.934 39.9242 177.297 40.7798 177.665 41.6412C178.033 42.5006 178.404 43.3661 178.799 44.2095C179.587 45.8947 180.478 47.517 181.646 48.8805L181.648 48.8825C183.37 50.8674 185.932 52.1276 188.516 53.233C191.136 54.3536 193.768 55.3132 195.804 56.6963L195.812 56.7012C196.649 57.2413 197.176 57.6959 197.542 58.2412C197.896 58.7666 198.122 59.4106 198.298 60.3684C197.83 61.7267 196.887 62.8626 195.626 63.8631C194.333 64.8889 192.731 65.7556 191.026 66.5657C190.174 66.9701 189.304 67.3582 188.437 67.744C187.571 68.129 186.709 68.5121 185.885 68.9046C184.242 69.687 182.715 70.521 181.569 71.5122H181.568L181.563 71.5171C179.294 73.5421 177.67 76.532 176.057 79.5583C174.479 82.5176 172.901 85.5249 170.733 87.8995C167.278 86.1064 165.662 83.0824 164.206 79.8298C162.727 76.526 161.4 72.9324 158.363 70.5182L158.362 70.5172C157.31 69.6854 155.917 68.9623 154.414 68.2763C152.932 67.5996 151.237 66.9137 149.69 66.2236C148.113 65.5196 146.615 64.7794 145.379 63.9337C144.182 63.1143 143.262 62.2161 142.745 61.1879C142.801 60.6996 142.859 60.3323 142.962 59.9841C143.071 59.6134 143.236 59.248 143.526 58.7813C145.102 56.4478 147.888 55.0781 150.91 53.7692C153.885 52.4803 157.1 51.2487 159.251 49.153H159.252C161.694 46.764 163.404 43.602 165.024 40.4266C166.605 37.3271 168.099 34.2196 170.107 31.6649Z" stroke="white" stroke-width="0.838906"/>
<path opacity="0.3" d="M113.256 94.8202C116.511 96.1603 118.287 98.9944 119.805 102.249C120.194 103.083 120.562 103.939 120.936 104.8C121.308 105.66 121.685 106.525 122.086 107.369C122.886 109.054 123.79 110.676 124.976 112.04L124.978 112.042C126.726 114.026 129.325 115.286 131.947 116.391C134.605 117.511 137.277 118.471 139.344 119.855V119.856L139.353 119.86C140.203 120.401 140.738 120.856 141.11 121.401C141.468 121.926 141.697 122.57 141.875 123.527C141.401 124.883 140.444 126.018 139.164 127.018C137.851 128.045 136.225 128.912 134.494 129.722C133.63 130.126 132.746 130.515 131.866 130.9C130.988 131.285 130.112 131.668 129.276 132.061C127.713 132.794 126.254 133.573 125.12 134.483L124.897 134.668L124.892 134.671C122.59 136.696 120.942 139.687 119.304 142.714C117.701 145.675 116.098 148.683 113.895 151.059C110.382 149.265 108.741 146.239 107.263 142.985C105.761 139.681 104.414 136.087 101.332 133.674L101.331 133.673C100.265 132.841 98.8516 132.118 97.3268 131.433C95.8219 130.756 94.1019 130.07 92.5313 129.38C90.93 128.676 89.4089 127.935 88.1543 127.089C86.9393 126.269 86.0064 125.371 85.4821 124.343C85.539 123.856 85.5967 123.491 85.7007 123.143C85.8106 122.776 85.9764 122.415 86.2663 121.954C87.8642 119.613 90.6969 118.239 93.7694 116.927C96.7893 115.638 100.051 114.408 102.233 112.313L102.234 112.312C104.712 109.923 106.448 106.762 108.092 103.586C109.698 100.484 111.216 97.3759 113.256 94.8202Z" stroke="white" stroke-width="0.838906"/>
<path opacity="0.3" d="M198.739 0.507783C201.94 1.84785 203.688 4.67888 205.183 7.9324C205.566 8.76707 205.929 9.62266 206.297 10.4841C206.665 11.3435 207.036 12.2089 207.431 13.0524C208.219 14.7376 209.11 16.3599 210.278 17.7234L210.28 17.7254C212.002 19.7103 214.564 20.9704 217.148 22.0758C219.768 23.1965 222.4 24.1561 224.436 25.5392L224.444 25.5441C225.281 26.0842 225.808 26.5388 226.174 27.0841C226.528 27.6095 226.754 28.2535 226.93 29.2113C226.462 30.5695 225.519 31.7054 224.258 32.706C222.965 33.7318 221.363 34.5984 219.658 35.4086C218.806 35.813 217.936 36.2011 217.069 36.5869C216.203 36.9719 215.341 37.355 214.517 37.7475C212.874 38.5299 211.347 39.3639 210.201 40.3551H210.2L210.195 40.36C207.926 42.3849 206.302 45.3749 204.689 48.4012C203.111 51.3605 201.533 54.3678 199.365 56.7424C195.91 54.9493 194.294 51.9253 192.838 48.6727C191.359 45.3689 190.032 41.7753 186.995 39.3611L186.994 39.3601C185.942 38.5283 184.549 37.8052 183.046 37.1192C181.564 36.4425 179.869 35.7566 178.322 35.0665C176.745 34.3625 175.246 33.6223 174.011 32.7765C172.814 31.9572 171.894 31.059 171.377 30.0308C171.433 29.5425 171.491 29.1752 171.594 28.827C171.703 28.4563 171.868 28.0908 172.158 27.6242C173.734 25.2907 176.52 23.921 179.542 22.612C182.517 21.3232 185.732 20.0916 187.883 17.9959H187.884C190.326 15.6069 192.036 12.4449 193.656 9.2695C195.237 6.16995 196.731 3.0625 198.739 0.507783Z" stroke="white" stroke-width="0.838906"/>
<path opacity="0.3" d="M141.888 63.6631C145.143 65.0032 146.919 67.8373 148.436 71.0916C148.826 71.9262 149.194 72.7819 149.568 73.6433C149.94 74.5027 150.317 75.3681 150.718 76.2116C151.518 77.8972 152.422 79.5191 153.608 80.8827L153.61 80.8846C155.358 82.869 157.957 84.1288 160.579 85.2341C163.237 86.3544 165.909 87.314 167.976 88.6974V88.6984L167.985 88.7033C168.835 89.2438 169.37 89.6989 169.742 90.2443C170.1 90.7694 170.329 91.4126 170.507 92.3695C170.033 93.7257 169.076 94.8609 167.796 95.8613C166.483 96.8875 164.857 97.7547 163.126 98.5649C162.262 98.9693 161.378 99.3574 160.498 99.7432C159.62 100.128 158.744 100.511 157.908 100.904C156.345 101.637 154.886 102.415 153.752 103.326L153.529 103.51L153.524 103.514C151.222 105.539 149.574 108.53 147.936 111.556C146.333 114.518 144.73 117.526 142.527 119.902C139.014 118.108 137.373 115.082 135.895 111.828C134.393 108.524 133.046 104.93 129.964 102.516L129.963 102.515C128.897 101.684 127.484 100.961 125.959 100.275C124.454 99.5986 122.734 98.9133 121.163 98.2228C119.562 97.5187 118.041 96.7779 116.786 95.9319C115.571 95.1123 114.638 94.2136 114.114 93.1861C114.171 92.6993 114.229 92.3334 114.333 91.9862C114.443 91.6192 114.608 91.2579 114.898 90.7972C116.496 88.4554 119.329 87.0818 122.401 85.7703C125.421 84.4813 128.683 83.2507 130.865 81.1561L130.866 81.1552C133.344 78.7663 135.08 75.6044 136.724 72.4287C138.33 69.3272 139.848 66.2187 141.888 63.6631Z" stroke="white" stroke-width="0.838906"/>
<path opacity="0.3" d="M226.945 31.6629C230.2 33.003 231.976 35.8371 233.493 39.0915C233.882 39.9261 234.251 40.7818 234.624 41.6431C234.997 42.5026 235.374 43.368 235.774 44.2115C236.574 45.897 237.479 47.5189 238.665 48.8825L238.667 48.8845C240.414 50.8688 243.013 52.1287 245.636 53.2339C248.294 54.3542 250.966 55.3138 253.033 56.6973V56.6982L253.042 56.7031C253.892 57.2436 254.426 57.6987 254.798 58.2441C255.157 58.7692 255.385 59.4124 255.564 60.3694C255.089 61.7256 254.132 62.8607 252.853 63.8611C251.54 64.8873 249.913 65.7545 248.183 66.5647C247.319 66.9692 246.434 67.3573 245.554 67.743C244.676 68.128 243.801 68.5112 242.965 68.9037C241.402 69.637 239.943 70.4153 238.808 71.3259L238.586 71.5102L238.581 71.5141C236.278 73.5388 234.63 76.5295 232.992 79.5563C231.39 82.5174 229.787 85.526 227.584 87.9014C224.071 86.1078 222.43 83.0816 220.951 79.8279C219.45 76.5236 218.103 72.93 215.021 70.5162L215.02 70.5152C213.953 69.684 212.54 68.9612 211.015 68.2753C209.511 67.5985 207.79 66.9132 206.22 66.2226C204.619 65.5186 203.097 64.7778 201.843 63.9317C200.628 63.1121 199.695 62.2134 199.171 61.1859C199.228 60.6991 199.285 60.3332 199.389 59.9861C199.499 59.6191 199.665 59.2577 199.955 58.797C201.553 56.4553 204.385 55.0816 207.458 53.7702C210.478 52.4811 213.74 51.2506 215.922 49.156L215.923 49.155C218.401 46.7662 220.137 43.6042 221.781 40.4286C223.386 37.3271 224.904 34.2186 226.945 31.6629Z" stroke="white" stroke-width="0.838906"/>
<path opacity="0.3" d="M170.52 94.8202C173.775 96.1603 175.551 98.9944 177.068 102.249C177.457 103.083 177.826 103.939 178.2 104.8C178.572 105.66 178.949 106.525 179.35 107.369C180.15 109.054 181.054 110.676 182.24 112.04L182.242 112.042C183.989 114.026 186.589 115.286 189.211 116.391C191.869 117.511 194.541 118.471 196.608 119.855V119.856L196.617 119.86C197.467 120.401 198.002 120.856 198.374 121.401C198.732 121.926 198.961 122.57 199.139 123.527C198.664 124.883 197.708 126.018 196.428 127.018C195.115 128.045 193.489 128.912 191.758 129.722C190.894 130.126 190.01 130.515 189.13 130.9C188.252 131.285 187.376 131.668 186.54 132.061C184.977 132.794 183.518 133.573 182.383 134.483L182.161 134.668L182.156 134.671C179.854 136.696 178.205 139.687 176.567 142.714C174.965 145.675 173.362 148.683 171.159 151.059C167.646 149.265 166.005 146.239 164.527 142.985C163.025 139.681 161.678 136.087 158.596 133.674L158.595 133.673C157.528 132.841 156.115 132.118 154.591 131.433C153.086 130.756 151.366 130.07 149.795 129.38C148.194 128.676 146.673 127.935 145.418 127.089C144.203 126.269 143.27 125.371 142.746 124.343C142.803 123.856 142.861 123.491 142.965 123.143C143.074 122.776 143.24 122.415 143.53 121.954C145.128 119.613 147.961 118.239 151.033 116.927C154.053 115.638 157.315 114.408 159.497 112.313L159.498 112.312C161.976 109.923 163.712 106.762 165.356 103.586C166.961 100.484 168.479 97.3759 170.52 94.8202Z" stroke="white" stroke-width="0.838906"/>
</svg>
