<svg width="45" height="46" viewBox="0 0 45 46" fill="none" xmlns="http://www.w3.org/2000/svg">
<path d="M30.5387 17.409V4.07532C30.5387 3.64338 30.3694 3.22913 30.068 2.9237C29.7667 2.61827 29.3579 2.44668 28.9317 2.44668H21.7006V4.07532H27.3248C27.751 4.07532 28.1597 4.24691 28.4611 4.55234C28.7624 4.85777 28.9317 5.27202 28.9317 5.70396V17.1044C29.4813 17.105 30.0261 17.2082 30.5387 17.409Z" fill="white"/>
<path d="M11.2537 13.0283V14.6569H13.6641C13.8772 14.6569 14.0815 14.7427 14.2322 14.8954C14.3829 15.0482 14.4675 15.2553 14.4675 15.4713V17.9142H16.0745V15.4713C16.0745 15.2553 16.1591 15.0482 16.3098 14.8954C16.4605 14.7427 16.6648 14.6569 16.8779 14.6569H19.2883V13.0283H16.8779C16.6648 13.0283 16.4605 12.9425 16.3098 12.7898C16.1591 12.6371 16.0745 12.4299 16.0745 12.214V9.77102H14.4675V12.214C14.4675 12.4299 14.3829 12.6371 14.2322 12.7898C14.0815 12.9425 13.8772 13.0283 13.6641 13.0283H11.2537Z" fill="white"/>
<path d="M11.2514 21.9866H23.3877L25.1353 19.2179C25.6541 18.3926 26.4199 17.7574 27.3207 17.4052V5.7002H21.4731C21.3332 5.94697 21.1317 6.15211 20.8888 6.29504C20.646 6.43797 20.3703 6.51366 20.0895 6.51452H10.448C10.1672 6.51366 9.8915 6.43797 9.64866 6.29504C9.40582 6.15211 9.20433 5.94697 9.06441 5.7002H3.21681V38.273H13.0994L14.6421 35.83H11.2514C11.0383 35.83 10.834 35.7443 10.6833 35.5915C10.5326 35.4388 10.448 35.2317 10.448 35.0157C10.448 34.7998 10.5326 34.5926 10.6833 34.4399C10.834 34.2872 11.0383 34.2014 11.2514 34.2014H15.6705L17.2131 31.7584H11.2514C11.0383 31.7584 10.834 31.6727 10.6833 31.5199C10.5326 31.3672 10.448 31.1601 10.448 30.9441C10.448 30.7282 10.5326 30.521 10.6833 30.3683C10.834 30.2156 11.0383 30.1298 11.2514 30.1298H18.2416L19.7842 27.6868H11.2514C11.0383 27.6868 10.834 27.601 10.6833 27.4483C10.5326 27.2956 10.448 27.0885 10.448 26.8725C10.448 26.6566 10.5326 26.4494 10.6833 26.2967C10.834 26.144 11.0383 26.0582 11.2514 26.0582H20.8167L22.3593 23.6152H11.2514C11.0383 23.6152 10.834 23.5294 10.6833 23.3767C10.5326 23.224 10.448 23.0169 10.448 22.8009C10.448 22.585 10.5326 22.3778 10.6833 22.2251C10.834 22.0724 11.0383 21.9866 11.2514 21.9866ZM8.03759 35.83H6.43066C6.21757 35.83 6.01321 35.7443 5.86253 35.5915C5.71185 35.4388 5.6272 35.2317 5.6272 35.0157C5.6272 34.7998 5.71185 34.5926 5.86253 34.4399C6.01321 34.2872 6.21757 34.2014 6.43066 34.2014H8.03759C8.25068 34.2014 8.45504 34.2872 8.60572 34.4399C8.7564 34.5926 8.84105 34.7998 8.84105 35.0157C8.84105 35.2317 8.7564 35.4388 8.60572 35.5915C8.45504 35.7443 8.25068 35.83 8.03759 35.83ZM8.03759 31.7584H6.43066C6.21757 31.7584 6.01321 31.6727 5.86253 31.5199C5.71185 31.3672 5.6272 31.1601 5.6272 30.9441C5.6272 30.7282 5.71185 30.521 5.86253 30.3683C6.01321 30.2156 6.21757 30.1298 6.43066 30.1298H8.03759C8.25068 30.1298 8.45504 30.2156 8.60572 30.3683C8.7564 30.521 8.84105 30.7282 8.84105 30.9441C8.84105 31.1601 8.7564 31.3672 8.60572 31.5199C8.45504 31.6727 8.25068 31.7584 8.03759 31.7584ZM8.03759 27.6868H6.43066C6.21757 27.6868 6.01321 27.601 5.86253 27.4483C5.71185 27.2956 5.6272 27.0885 5.6272 26.8725C5.6272 26.6566 5.71185 26.4494 5.86253 26.2967C6.01321 26.144 6.21757 26.0582 6.43066 26.0582H8.03759C8.25068 26.0582 8.45504 26.144 8.60572 26.2967C8.7564 26.4494 8.84105 26.6566 8.84105 26.8725C8.84105 27.0885 8.7564 27.2956 8.60572 27.4483C8.45504 27.601 8.25068 27.6868 8.03759 27.6868ZM8.03759 23.6152H6.43066C6.21757 23.6152 6.01321 23.5294 5.86253 23.3767C5.71185 23.224 5.6272 23.0169 5.6272 22.8009C5.6272 22.585 5.71185 22.3778 5.86253 22.2251C6.01321 22.0724 6.21757 21.9866 6.43066 21.9866H8.03759C8.25068 21.9866 8.45504 22.0724 8.60572 22.2251C8.7564 22.3778 8.84105 22.585 8.84105 22.8009C8.84105 23.0169 8.7564 23.224 8.60572 23.3767C8.45504 23.5294 8.25068 23.6152 8.03759 23.6152ZM9.64451 14.6577V13.0291C9.64451 12.5971 9.81382 12.1829 10.1152 11.8775C10.4165 11.572 10.8253 11.4004 11.2514 11.4004H12.8584V9.7718C12.8584 9.33985 13.0277 8.9256 13.329 8.62017C13.6304 8.31475 14.0391 8.14316 14.4653 8.14316H16.0722C16.4984 8.14316 16.9071 8.31475 17.2085 8.62017C17.5098 8.9256 17.6791 9.33985 17.6791 9.7718V11.4004H19.2861C19.7123 11.4004 20.121 11.572 20.4223 11.8775C20.7237 12.1829 20.893 12.5971 20.893 13.0291V14.6577C20.893 15.0897 20.7237 15.5039 20.4223 15.8093C20.121 16.1148 19.7123 16.2864 19.2861 16.2864H17.6791V17.915C17.6791 18.3469 17.5098 18.7612 17.2085 19.0666C16.9071 19.3721 16.4984 19.5436 16.0722 19.5436H14.4653C14.0391 19.5436 13.6304 19.3721 13.329 19.0666C13.0277 18.7612 12.8584 18.3469 12.8584 17.915V16.2864H11.2514C10.8253 16.2864 10.4165 16.1148 10.1152 15.8093C9.81382 15.5039 9.64451 15.0897 9.64451 14.6577Z" fill="white"/>
<path d="M44.6192 44.0556C44.8856 43.572 45.0167 43.0239 44.9983 42.4704C44.9799 41.9169 44.8127 41.379 44.5148 40.9147L31.3685 20.0983C31.1097 19.6795 30.7501 19.3342 30.3234 19.0949C29.8968 18.8555 29.4172 18.73 28.9296 18.73C28.442 18.73 27.9624 18.8555 27.5358 19.0949C27.1092 19.3342 26.7496 19.6795 26.4907 20.0983L13.342 40.9155C13.0441 41.3798 12.877 41.9177 12.8586 42.4712C12.8402 43.0247 12.9712 43.5728 13.2376 44.0564C13.4826 44.5247 13.8492 44.9164 14.2978 45.1889C14.7464 45.4614 15.2599 45.6046 15.783 45.6028H42.0755C42.5983 45.6042 43.1116 45.4608 43.5599 45.1881C44.0082 44.9155 44.3745 44.5238 44.6192 44.0556ZM28.9292 43.9741C28.4525 43.9741 27.9865 43.8309 27.5901 43.5624C27.1937 43.294 26.8848 42.9124 26.7023 42.4661C26.5199 42.0197 26.4721 41.5285 26.5651 41.0546C26.6582 40.5807 26.8877 40.1454 27.2248 39.8037C27.5619 39.4621 27.9914 39.2294 28.459 39.1352C28.9265 39.0409 29.4112 39.0893 29.8516 39.2742C30.2921 39.4591 30.6685 39.7722 30.9334 40.1739C31.1982 40.5757 31.3396 41.048 31.3396 41.5312C31.3396 42.1791 31.0857 42.8005 30.6336 43.2586C30.1816 43.7168 29.5685 43.9741 28.9292 43.9741ZM31.3396 35.0166C31.3396 35.6645 31.0857 36.2859 30.6336 36.744C30.1816 37.2022 29.5685 37.4596 28.9292 37.4596C28.2899 37.4596 27.6769 37.2022 27.2248 36.744C26.7728 36.2859 26.5188 35.6645 26.5188 35.0166V25.2448C26.5188 24.5969 26.7728 23.9755 27.2248 23.5173C27.6769 23.0592 28.2899 22.8018 28.9292 22.8018C29.5685 22.8018 30.1816 23.0592 30.6336 23.5173C31.0857 23.9755 31.3396 24.5969 31.3396 25.2448V35.0166Z" fill="white"/>
<path d="M28.9272 24.4302C28.7141 24.4302 28.5098 24.5159 28.3591 24.6687C28.2084 24.8214 28.1237 25.0285 28.1237 25.2445V35.0163C28.1237 35.2323 28.2084 35.4394 28.3591 35.5921C28.5098 35.7448 28.7141 35.8306 28.9272 35.8306C29.1403 35.8306 29.3447 35.7448 29.4953 35.5921C29.646 35.4394 29.7307 35.2323 29.7307 35.0163V25.2445C29.7307 25.0285 29.646 24.8214 29.4953 24.6687C29.3447 24.5159 29.1403 24.4302 28.9272 24.4302Z" fill="white"/>
<path d="M28.9272 42.3421C29.371 42.3421 29.7307 41.9775 29.7307 41.5278C29.7307 41.078 29.371 40.7134 28.9272 40.7134C28.4835 40.7134 28.1237 41.078 28.1237 41.5278C28.1237 41.9775 28.4835 42.3421 28.9272 42.3421Z" fill="white"/>
<path d="M20.0884 1.62864H18.4815C18.3568 1.62864 18.2338 1.59921 18.1222 1.54267C18.0106 1.48613 17.9136 1.40405 17.8388 1.30291C17.5394 0.898371 17.1512 0.570026 16.705 0.34388C16.2587 0.117735 15.7666 0 15.2677 0C14.7687 0 14.2767 0.117735 13.8304 0.34388C13.3841 0.570026 12.996 0.898371 12.6966 1.30291C12.6217 1.40405 12.5247 1.48613 12.4131 1.54267C12.3016 1.59921 12.1786 1.62864 12.0538 1.62864H10.4469V4.88592H20.0884V1.62864Z" fill="white"/>
<path d="M1.60693 41.5341H11.3786C11.4941 41.0043 11.6997 40.4989 11.9861 40.0406L12.0712 39.9054H3.21385C2.78767 39.9054 2.37894 39.7338 2.07758 39.4284C1.77623 39.123 1.60693 38.7087 1.60693 38.2768V5.70396C1.60693 5.27202 1.77623 4.85777 2.07758 4.55234C2.37894 4.24691 2.78767 4.07532 3.21385 4.07532H8.83809V2.44668H1.60693C1.18074 2.44668 0.772015 2.61827 0.470658 2.9237C0.169301 3.22913 0 3.64338 0 4.07532V39.9054C0 40.3374 0.169301 40.7516 0.470658 41.057C0.772015 41.3625 1.18074 41.5341 1.60693 41.5341Z" fill="white"/>
</svg>
